<svg width="1584" height="396" viewBox="0 0 1584 396" fill="none" xmlns="http://www.w3.org/2000/svg">
<rect width="1584" height="396" fill="#F5F5F5"/>
<g id="Awesome banner" clip-path="url(#clip0_0_1)">
<rect width="1584" height="396" fill="url(#paint0_linear_0_1)"/>
<ellipse id="Ellipse 2" cx="323" cy="64" rx="285" ry="288" fill="url(#paint1_linear_0_1)" fill-opacity="0.1"/>
<g id="copyright">
<path d="M75.95 334.52L72.30 334.52L72.30 311.16L77.20 311.16L83.70 330.04Q83.60 329.02 83.50 327.62Q83.41 326.23 83.33 324.79Q83.25 323.35 83.25 322.23L83.25 311.16L86.90 311.16L86.90 334.52L82 334.52L75.57 315.64Q75.63 316.57 75.73 317.88Q75.82 319.19 75.89 320.57Q75.95 321.94 75.95 323.10L75.95 334.52M98.80 334.84Q96.46 334.84 94.67 333.96Q92.88 333.08 91.89 331.53Q90.90 329.98 90.90 327.93Q90.90 325.78 92.13 324.18Q93.36 322.58 95.34 322.17L95.34 322.10Q93.65 321.75 92.61 320.38Q91.57 319 91.57 317.11Q91.57 315.26 92.48 313.85Q93.39 312.44 95.02 311.64Q96.66 310.84 98.80 310.84Q100.94 310.84 102.59 311.64Q104.24 312.44 105.15 313.85Q106.06 315.26 106.06 317.11Q106.06 319 105.01 320.38Q103.95 321.75 102.26 322.10L102.26 322.17Q104.24 322.58 105.47 324.18Q106.70 325.78 106.70 327.93Q106.70 329.98 105.71 331.53Q104.72 333.08 102.93 333.96Q101.14 334.84 98.80 334.84M98.80 320.73Q100.30 320.73 101.23 319.82Q102.16 318.90 102.16 317.46Q102.16 315.99 101.23 315.08Q100.30 314.17 98.80 314.17Q97.30 314.17 96.37 315.08Q95.44 315.99 95.44 317.46Q95.44 318.90 96.37 319.82Q97.30 320.73 98.80 320.73M98.80 331.45Q100.56 331.45 101.68 330.42Q102.80 329.40 102.80 327.74Q102.80 326.04 101.68 325Q100.56 323.96 98.80 323.96Q97.04 323.96 95.92 325Q94.80 326.04 94.80 327.74Q94.80 329.40 95.92 330.42Q97.04 331.45 98.80 331.45M114.35 334.52L110.70 334.52L110.70 311.16L115.60 311.16L122.10 330.04Q122 329.02 121.90 327.62Q121.81 326.23 121.73 324.79Q121.65 323.35 121.65 322.23L121.65 311.16L125.30 311.16L125.30 334.52L120.40 334.52L113.97 315.64Q114.03 316.57 114.13 317.88Q114.22 319.19 114.29 320.57Q114.35 321.94 114.35 323.10" fill="white" fill-opacity="0.9"/>
<path d="M161.48 325.24L151.24 325.24L151.24 322.68L161.48 322.68" fill="white" fill-opacity="0.9"/>
<path d="M195.02 334.84Q191.82 334.84 189.96 333.05Q188.11 331.26 188.11 328.12L188.11 317.56Q188.11 314.42 189.96 312.63Q191.82 310.84 195.02 310.84Q198.15 310.84 200.01 312.65Q201.87 314.46 201.87 317.56L198.99 317.56Q198.99 315.58 197.95 314.50Q196.91 313.43 195.02 313.43Q193.13 313.43 192.06 314.50Q190.99 315.58 190.99 317.56L190.99 328.12Q190.99 330.10 192.06 331.18Q193.13 332.25 195.02 332.25Q196.91 332.25 197.95 331.18Q198.99 330.10 198.99 328.12L201.87 328.12Q201.87 331.22 200.01 333.03Q198.15 334.84 195.02 334.84" fill="white" fill-opacity="0.9"/>
<path d="M213.96 334.84Q210.83 334.84 209 333.02Q207.18 331.19 207.18 327.80L207.18 317.88Q207.18 314.49 209 312.66Q210.83 310.84 213.96 310.84Q217.10 310.84 218.92 312.66Q220.75 314.49 220.75 317.85L220.75 327.80Q220.75 331.19 218.92 333.02Q217.10 334.84 213.96 334.84M213.96 332.25Q215.85 332.25 216.86 331.18Q217.87 330.10 217.87 328.12L217.87 317.56Q217.87 315.58 216.86 314.50Q215.85 313.43 213.96 313.43Q212.11 313.43 211.08 314.50Q210.06 315.58 210.06 317.56L210.06 328.12Q210.06 330.10 211.08 331.18Q212.11 332.25 213.96 332.25" fill="white" fill-opacity="0.9"/>
<path d="M228.65 334.52L225.87 334.52L225.87 311.16L230.12 311.16L233.10 321.27L236.20 311.16L240.46 311.16L240.46 334.52L237.67 334.52L237.67 323.48Q237.67 321.91 237.72 319.88Q237.77 317.85 237.87 315.77Q237.96 313.69 238.09 312.02L234.31 324.09L231.82 324.09L228.20 312.31Q228.46 314.68 228.55 317.50Q228.65 320.31 228.65 323.48" fill="white" fill-opacity="0.9"/>
<path d="M247.85 334.52L245.07 334.52L245.07 311.16L249.32 311.16L252.30 321.27L255.40 311.16L259.66 311.16L259.66 334.52L256.87 334.52L256.87 323.48Q256.87 321.91 256.92 319.88Q256.97 317.85 257.07 315.77Q257.16 313.69 257.29 312.02L253.51 324.09L251.02 324.09L247.40 312.31Q247.66 314.68 247.75 317.50Q247.85 320.31 247.85 323.48" fill="white" fill-opacity="0.9"/>
<path d="M271.56 334.84Q268.30 334.84 266.57 333.03Q264.84 331.22 264.84 328.12L264.84 311.16L267.72 311.16L267.72 328.12Q267.72 330.04 268.67 331.16Q269.61 332.28 271.56 332.28Q273.48 332.28 274.44 331.16Q275.40 330.04 275.40 328.12L275.40 311.16L278.28 311.16L278.28 328.12Q278.28 331.26 276.57 333.05Q274.86 334.84 271.56 334.84" fill="white" fill-opacity="0.9"/>
<path d="M286.83 334.52L284.04 334.52L284.04 311.16L287.88 311.16L295.02 331.16Q294.95 330.36 294.87 329.19Q294.79 328.02 294.75 326.73Q294.70 325.43 294.70 324.28L294.70 311.16L297.48 311.16L297.48 334.52L293.64 334.52L286.54 314.52Q286.60 315.29 286.67 316.46Q286.73 317.62 286.78 318.92Q286.83 320.22 286.83 321.40" fill="white" fill-opacity="0.9"/>
<path d="M316.20 334.52L303.72 334.52L303.72 331.90L308.49 331.90L308.49 313.78L303.72 313.78L303.72 311.16L316.20 311.16L316.20 313.78L311.43 313.78L311.43 331.90L316.20 331.90" fill="white" fill-opacity="0.9"/>
<path d="M330.60 334.52L327.72 334.52L327.72 313.78L321.32 313.78L321.32 311.16L337 311.16L337 313.78L330.60 313.78" fill="white" fill-opacity="0.9"/>
<path d="M349.80 334.52L346.92 334.52L346.92 325.78L339.88 311.16L342.95 311.16L347.50 320.76Q347.88 321.56 348.11 322.12Q348.33 322.68 348.39 322.94Q348.46 322.68 348.70 322.12Q348.94 321.56 349.32 320.76L353.87 311.16L356.84 311.16L349.80 325.78" fill="white" fill-opacity="0.9"/>
<path d="M382.83 334.52L380.04 334.52L380.04 311.16L383.88 311.16L391.02 331.16Q390.95 330.36 390.87 329.19Q390.79 328.02 390.75 326.73Q390.70 325.43 390.70 324.28L390.70 311.16L393.48 311.16L393.48 334.52L389.64 334.52L382.54 314.52Q382.60 315.29 382.67 316.46Q382.73 317.62 382.78 318.92Q382.83 320.22 382.83 321.40" fill="white" fill-opacity="0.9"/>
<path d="M405.96 334.84Q402.83 334.84 401 333.02Q399.18 331.19 399.18 327.80L399.18 317.88Q399.18 314.49 401 312.66Q402.83 310.84 405.96 310.84Q409.10 310.84 410.92 312.66Q412.75 314.49 412.75 317.85L412.75 327.80Q412.75 331.19 410.92 333.02Q409.10 334.84 405.96 334.84M405.96 332.25Q407.85 332.25 408.86 331.18Q409.87 330.10 409.87 328.12L409.87 317.56Q409.87 315.58 408.86 314.50Q407.85 313.43 405.96 313.43Q404.11 313.43 403.08 314.50Q402.06 315.58 402.06 317.56L402.06 328.12Q402.06 330.10 403.08 331.18Q404.11 332.25 405.96 332.25" fill="white" fill-opacity="0.9"/>
<path d="M424.55 334.52L418.51 334.52L418.51 311.16L424.55 311.16Q426.83 311.16 428.47 312.02Q430.12 312.89 431.03 314.46Q431.95 316.02 431.95 318.17L431.95 327.48Q431.95 329.62 431.03 331.21Q430.12 332.79 428.47 333.66Q426.83 334.52 424.55 334.52M421.39 313.72L421.39 331.96L424.55 331.96Q426.67 331.96 427.87 330.78Q429.07 329.59 429.07 327.48L429.07 318.17Q429.07 316.09 427.87 314.90Q426.67 313.72 424.55 313.72" fill="white" fill-opacity="0.9"/>
<path d="M451.40 334.52L437.96 334.52L437.96 311.16L451.40 311.16L451.40 313.78L440.81 313.78L440.81 321.02L450.28 321.02L450.28 323.58L440.81 323.58L440.81 331.90L451.40 331.90" fill="white" fill-opacity="0.9"/>
<path d="M463.69 334.84Q460.30 334.84 458.28 333.05Q456.27 331.26 456.27 328.12L459.15 328.12Q459.15 330.07 460.39 331.18Q461.64 332.28 463.69 332.28Q465.67 332.28 466.86 331.13Q468.04 329.98 468.04 328.12Q468.04 326.71 467.29 325.67Q466.54 324.63 465.13 324.25L461.58 323.26Q459.37 322.62 458.11 320.97Q456.84 319.32 456.84 317.08Q456.84 315.22 457.67 313.82Q458.51 312.41 460.01 311.62Q461.51 310.84 463.47 310.84Q465.45 310.84 466.97 311.62Q468.49 312.41 469.35 313.80Q470.22 315.19 470.22 317.02L467.34 317.02Q467.34 315.42 466.25 314.41Q465.16 313.40 463.47 313.40Q461.77 313.40 460.71 314.41Q459.66 315.42 459.66 317.02Q459.66 318.30 460.35 319.21Q461.03 320.12 462.28 320.47L465.93 321.50Q468.27 322.14 469.56 323.91Q470.86 325.69 470.86 328.12Q470.86 331.19 468.91 333.02Q466.95 334.84 463.69 334.84" fill="white" fill-opacity="0.9"/>
</g>
<path d="M77.56 197.64L72.23 197.64L72.23 180.12L77.20 180.12Q79.60 180.12 80.96 181.32Q82.31 182.52 82.31 184.66Q82.31 186 81.46 187.08Q80.61 188.16 79.24 188.42L79.24 188.50Q80.27 188.62 81.05 189.22Q81.83 189.82 82.28 190.74Q82.72 191.66 82.72 192.77Q82.72 195.02 81.34 196.33Q79.96 197.64 77.56 197.64M74.34 182.06L74.34 187.58L77.18 187.58Q78.57 187.58 79.37 186.84Q80.18 186.10 80.18 184.82Q80.18 183.55 79.38 182.81Q78.59 182.06 77.20 182.06L74.34 182.06M74.34 189.46L74.34 195.70L77.32 195.70Q78.83 195.70 79.71 194.89Q80.58 194.09 80.58 192.70Q80.58 191.26 79.71 190.36Q78.83 189.46 77.32 189.46" fill="white" fill-opacity="0.7"/>
<path d="M91.58 197.88Q89.30 197.88 87.93 196.52Q86.56 195.17 86.56 192.84L86.56 184.44L88.72 184.44L88.72 192.84Q88.72 194.28 89.49 195.13Q90.26 195.98 91.58 195.98Q92.92 195.98 93.70 195.13Q94.48 194.28 94.48 192.84L94.48 184.44L96.64 184.44L96.64 192.84Q96.64 195.17 95.25 196.52Q93.86 197.88 91.58 197.88" fill="white" fill-opacity="0.7"/>
<path d="M112.12 197.64L100.84 197.64L100.84 195.67L105.52 195.67L105.52 186.41L101.32 186.41L101.32 184.44L107.68 184.44L107.68 195.67L112.12 195.67L112.12 197.64M106.36 182.06Q105.57 182.06 105.11 181.66Q104.66 181.25 104.66 180.55Q104.66 179.83 105.11 179.41Q105.57 178.99 106.36 178.99Q107.15 178.99 107.61 179.41Q108.06 179.83 108.06 180.55Q108.06 181.25 107.61 181.66Q107.15 182.06 106.36 182.06" fill="white" fill-opacity="0.7"/>
<path d="M126.40 197.64L122.32 197.64Q120.57 197.64 119.52 196.62Q118.48 195.60 118.48 193.92L118.48 182.09L113.92 182.09L113.92 180.12L120.64 180.12L120.64 193.92Q120.64 194.74 121.10 195.20Q121.55 195.67 122.32 195.67L126.40 195.67" fill="white" fill-opacity="0.7"/>
<path d="M134.03 197.88Q132.06 197.88 130.88 196.56Q129.69 195.24 129.69 192.98L129.69 189.12Q129.69 186.84 130.86 185.52Q132.04 184.20 134.03 184.20Q135.52 184.20 136.49 184.94Q137.46 185.69 137.66 186.96L137.68 186.96L137.63 183.96L137.63 180.12L139.79 180.12L139.79 197.64L137.63 197.64L137.63 195.12L137.61 195.12Q137.44 196.42 136.48 197.15Q135.52 197.88 134.03 197.88M134.75 196.01Q136.10 196.01 136.86 195.17Q137.63 194.33 137.63 192.84L137.63 189.24Q137.63 187.75 136.86 186.91Q136.10 186.07 134.75 186.07Q133.38 186.07 132.62 186.78Q131.85 187.49 131.85 189.12L131.85 192.96Q131.85 194.57 132.62 195.29Q133.38 196.01 134.75 196.01" fill="white" fill-opacity="0.7"/>
<path d="M164.13 197.83L163.07 197.83Q160.86 197.83 159.65 196.84Q158.44 195.84 158.44 194.02L160.60 194.02Q160.60 194.93 161.25 195.44Q161.90 195.96 163.07 195.96L164.13 195.96Q165.33 195.96 165.99 195.43Q166.65 194.90 166.65 193.94Q166.65 192.24 165.09 192.02L161.44 191.50Q160.10 191.30 159.35 190.38Q158.61 189.46 158.61 187.94Q158.61 186.22 159.80 185.23Q160.98 184.25 163.07 184.25L164.13 184.25Q166.05 184.25 167.26 185.20Q168.47 186.14 168.57 187.68L166.38 187.68Q166.34 186.98 165.72 186.53Q165.11 186.07 164.13 186.07L163.07 186.07Q161.97 186.07 161.34 186.58Q160.72 187.08 160.72 187.94Q160.72 189.34 161.99 189.53L165.40 190.01Q168.76 190.49 168.76 193.94Q168.76 195.79 167.55 196.81Q166.34 197.83 164.13 197.83" fill="white" fill-opacity="0.7"/>
<path d="MNaN 197.88Q175.67 197.88 174.24 196.48Q172.82 195.07 172.82 192.60L172.82 189.48Q172.82 187.01 174.24 185.60Q175.67 184.20 NaN 184.20Q179.56 184.20 180.72 184.82Q181.89 185.45 182.54 186.58Q183.18 187.70 183.18 189.24L183.18 191.59L174.93 191.59L174.93 192.84Q174.93 194.30 175.77 195.16Q176.61 196.01 NaN 196.01Q179.20 196.01 179.98 195.54Q180.76 195.07 180.93 194.28L183.09 194.28Q182.87 195.94 181.48 196.91Q180.09 197.88 NaN 197.88M174.93 189.24L174.93 189.91L181.07 189.91L181.07 189.24Q181.07 187.68 180.27 186.83Q179.46 185.98 NaN 185.98Q176.54 185.98 175.73 186.83Q174.93 187.68 174.93 189.24" fill="white" fill-opacity="0.7"/>
<path d="M192.59 197.88Q190.19 197.88 188.75 196.54Q187.31 195.19 187.31 192.84L187.31 189.24Q187.31 186.89 188.75 185.54Q190.19 184.20 192.59 184.20Q194.87 184.20 196.28 185.42Q197.68 186.65 197.75 188.76L195.59 188.76Q195.52 187.49 194.73 186.80Q193.94 186.12 192.59 186.12Q191.18 186.12 190.32 186.92Q189.47 187.73 189.47 189.22L189.47 192.84Q189.47 194.33 190.32 195.14Q191.18 195.96 192.59 195.96Q193.94 195.96 194.73 195.26Q195.52 194.57 195.59 193.32L197.75 193.32Q197.68 195.43 196.28 196.66Q194.87 197.88 192.59 197.88" fill="white" fill-opacity="0.7"/>
<path d="M206.78 197.88Q204.50 197.88 203.13 196.52Q201.76 195.17 201.76 192.84L201.76 184.44L203.92 184.44L203.92 192.84Q203.92 194.28 204.69 195.13Q205.46 195.98 206.78 195.98Q208.12 195.98 208.90 195.13Q209.68 194.28 209.68 192.84L209.68 184.44L211.84 184.44L211.84 192.84Q211.84 195.17 210.45 196.52Q209.06 197.88 206.78 197.88" fill="white" fill-opacity="0.7"/>
<path d="M218.85 197.64L216.69 197.64L216.69 184.44L218.85 184.44L218.85 186.96L218.90 186.96Q219.06 185.69 219.98 184.94Q220.89 184.20 222.42 184.20Q224.49 184.20 225.60 185.44Q226.72 186.67 226.72 188.95L226.72 190.08L224.56 190.08L224.56 188.95Q224.56 186.07 221.75 186.07Q220.34 186.07 219.59 186.89Q218.85 187.70 218.85 189.24" fill="white" fill-opacity="0.7"/>
<path d="M235.60 197.88Q233.27 197.88 231.84 196.48Q230.42 195.07 230.42 192.60L230.42 189.48Q230.42 187.01 231.84 185.60Q233.27 184.20 235.60 184.20Q237.16 184.20 238.32 184.82Q239.49 185.45 240.14 186.58Q240.78 187.70 240.78 189.24L240.78 191.59L232.53 191.59L232.53 192.84Q232.53 194.30 233.37 195.16Q234.21 196.01 235.60 196.01Q236.80 196.01 237.58 195.54Q238.36 195.07 238.53 194.28L240.69 194.28Q240.47 195.94 239.08 196.91Q237.69 197.88 235.60 197.88M232.53 189.24L232.53 189.91L238.67 189.91L238.67 189.24Q238.67 187.68 237.87 186.83Q237.06 185.98 235.60 185.98Q234.14 185.98 233.33 186.83Q232.53 187.68 232.53 189.24" fill="white" fill-opacity="0.7"/>
<path d="M263.25 197.88Q261.21 197.88 260.01 196.74Q258.81 195.60 258.81 193.75Q258.81 192.53 259.36 191.62Q259.91 190.70 260.90 190.19Q261.88 189.67 263.15 189.67L267.23 189.67L267.23 188.64Q267.23 186.07 264.42 186.07Q263.18 186.07 262.41 186.53Q261.64 186.98 261.59 187.80L259.43 187.80Q259.55 186.24 260.88 185.22Q262.22 184.20 264.42 184.20Q266.82 184.20 268.11 185.35Q269.39 186.50 269.39 188.57L269.39 197.64L267.26 197.64L267.26 195.24L267.21 195.24Q267.02 196.46 265.98 197.17Q264.95 197.88 263.25 197.88M263.78 196.06Q265.36 196.06 266.30 195.29Q267.23 194.52 267.23 193.20L267.23 191.35L263.39 191.35Q262.34 191.35 261.68 191.99Q261.02 192.62 261.02 193.68Q261.02 194.78 261.75 195.42Q262.48 196.06 263.78 196.06" fill="white" fill-opacity="0.7"/>
<path d="M275.97 197.64L273.81 197.64L273.81 184.44L275.97 184.44L275.97 186.96L275.99 186.96Q276.16 185.64 277.07 184.92Q277.98 184.20 279.50 184.20Q281.49 184.20 282.66 185.42Q283.84 186.65 283.84 188.76L283.84 197.64L281.68 197.64L281.68 189.14Q281.68 187.63 280.92 186.83Q280.17 186.02 278.87 186.02Q277.53 186.02 276.75 186.86Q275.97 187.70 275.97 189.24" fill="white" fill-opacity="0.7"/>
<path d="M292.43 197.88Q290.46 197.88 289.28 196.56Q288.09 195.24 288.09 192.98L288.09 189.12Q288.09 186.84 289.26 185.52Q290.44 184.20 292.43 184.20Q293.92 184.20 294.89 184.94Q295.86 185.69 296.06 186.96L296.08 186.96L296.03 183.96L296.03 180.12L298.19 180.12L298.19 197.64L296.03 197.64L296.03 195.12L296.01 195.12Q295.84 196.42 294.88 197.15Q293.92 197.88 292.43 197.88M293.15 196.01Q294.50 196.01 295.26 195.17Q296.03 194.33 296.03 192.84L296.03 189.24Q296.03 187.75 295.26 186.91Q294.50 186.07 293.15 186.07Q291.78 186.07 291.02 186.78Q290.25 187.49 290.25 189.12L290.25 192.96Q290.25 194.57 291.02 195.29Q291.78 196.01 293.15 196.01" fill="white" fill-opacity="0.7"/>
<path d="M322.53 197.83L321.47 197.83Q319.26 197.83 318.05 196.84Q316.84 195.84 316.84 194.02L319 194.02Q319 194.93 319.65 195.44Q320.30 195.96 321.47 195.96L322.53 195.96Q323.73 195.96 324.39 195.43Q325.05 194.90 325.05 193.94Q325.05 192.24 323.49 192.02L319.84 191.50Q318.50 191.30 317.75 190.38Q317.01 189.46 317.01 187.94Q317.01 186.22 318.20 185.23Q319.38 184.25 321.47 184.25L322.53 184.25Q324.45 184.25 325.66 185.20Q326.87 186.14 326.97 187.68L324.78 187.68Q324.74 186.98 324.12 186.53Q323.51 186.07 322.53 186.07L321.47 186.07Q320.37 186.07 319.74 186.58Q319.12 187.08 319.12 187.94Q319.12 189.34 320.39 189.53L323.80 190.01Q327.16 190.49 327.16 193.94Q327.16 195.79 325.95 196.81Q324.74 197.83 322.53 197.83" fill="white" fill-opacity="0.7"/>
<path d="M336.59 197.88Q334.19 197.88 332.75 196.54Q331.31 195.19 331.31 192.84L331.31 189.24Q331.31 186.89 332.75 185.54Q334.19 184.20 336.59 184.20Q338.87 184.20 340.28 185.42Q341.68 186.65 341.75 188.76L339.59 188.76Q339.52 187.49 338.73 186.80Q337.94 186.12 336.59 186.12Q335.18 186.12 334.32 186.92Q333.47 187.73 333.47 189.22L333.47 192.84Q333.47 194.33 334.32 195.14Q335.18 195.96 336.59 195.96Q337.94 195.96 338.73 195.26Q339.52 194.57 339.59 193.32L341.75 193.32Q341.68 195.43 340.28 196.66Q338.87 197.88 336.59 197.88" fill="white" fill-opacity="0.7"/>
<path d="M349.65 197.88Q347.61 197.88 346.41 196.74Q345.21 195.60 345.21 193.75Q345.21 192.53 345.76 191.62Q346.31 190.70 347.30 190.19Q348.28 189.67 349.55 189.67L353.63 189.67L353.63 188.64Q353.63 186.07 350.82 186.07Q349.58 186.07 348.81 186.53Q348.04 186.98 347.99 187.80L345.83 187.80Q345.95 186.24 347.28 185.22Q348.62 184.20 350.82 184.20Q353.22 184.20 354.51 185.35Q355.79 186.50 355.79 188.57L355.79 197.64L353.66 197.64L353.66 195.24L353.61 195.24Q353.42 196.46 352.38 197.17Q351.35 197.88 349.65 197.88M350.18 196.06Q351.76 196.06 352.70 195.29Q353.63 194.52 353.63 193.20L353.63 191.35L349.79 191.35Q348.74 191.35 348.08 191.99Q347.42 192.62 347.42 193.68Q347.42 194.78 348.15 195.42Q348.88 196.06 350.18 196.06" fill="white" fill-opacity="0.7"/>
<path d="M371.20 197.64L367.12 197.64Q365.37 197.64 364.32 196.62Q363.28 195.60 363.28 193.92L363.28 182.09L358.72 182.09L358.72 180.12L365.44 180.12L365.44 193.92Q365.44 194.74 365.90 195.20Q366.35 195.67 367.12 195.67L371.20 195.67" fill="white" fill-opacity="0.7"/>
<path d="M378.45 197.88Q376.41 197.88 375.21 196.74Q374.01 195.60 374.01 193.75Q374.01 192.53 374.56 191.62Q375.11 190.70 376.10 190.19Q377.08 189.67 378.35 189.67L382.43 189.67L382.43 188.64Q382.43 186.07 379.62 186.07Q378.38 186.07 377.61 186.53Q376.84 186.98 376.79 187.80L374.63 187.80Q374.75 186.24 376.08 185.22Q377.42 184.20 379.62 184.20Q382.02 184.20 383.31 185.35Q384.59 186.50 384.59 188.57L384.59 197.64L382.46 197.64L382.46 195.24L382.41 195.24Q382.22 196.46 381.18 197.17Q380.15 197.88 378.45 197.88M378.98 196.06Q380.56 196.06 381.50 195.29Q382.43 194.52 382.43 193.20L382.43 191.35L378.59 191.35Q377.54 191.35 376.88 191.99Q376.22 192.62 376.22 193.68Q376.22 194.78 376.95 195.42Q377.68 196.06 378.98 196.06" fill="white" fill-opacity="0.7"/>
<path d="M394.77 197.88Q393.28 197.88 392.32 197.15Q391.36 196.42 391.19 195.12L391.17 195.12L391.17 197.64L389.01 197.64L389.01 180.12L391.17 180.12L391.17 183.96L391.12 186.96L391.14 186.96Q391.34 185.69 392.31 184.94Q393.28 184.20 394.77 184.20Q396.76 184.20 397.94 185.52Q399.11 186.84 399.11 189.12L399.11 192.98Q399.11 195.24 397.94 196.56Q396.76 197.88 394.77 197.88M394.05 196.01Q395.42 196.01 396.18 195.29Q396.95 194.57 396.95 192.96L396.95 189.12Q396.95 187.49 396.18 186.78Q395.42 186.07 394.05 186.07Q392.73 186.07 391.95 186.91Q391.17 187.75 391.17 189.24L391.17 192.84Q391.17 194.33 391.95 195.17Q392.73 196.01 394.05 196.01" fill="white" fill-opacity="0.7"/>
<path d="M414.40 197.64L410.32 197.64Q408.57 197.64 407.52 196.62Q406.48 195.60 406.48 193.92L406.48 182.09L401.92 182.09L401.92 180.12L408.64 180.12L408.64 193.92Q408.64 194.74 409.10 195.20Q409.55 195.67 410.32 195.67L414.40 195.67" fill="white" fill-opacity="0.7"/>
<path d="M422.80 197.88Q420.47 197.88 419.04 196.48Q417.62 195.07 417.62 192.60L417.62 189.48Q417.62 187.01 419.04 185.60Q420.47 184.20 422.80 184.20Q424.36 184.20 425.52 184.82Q426.69 185.45 427.34 186.58Q427.98 187.70 427.98 189.24L427.98 191.59L419.73 191.59L419.73 192.84Q419.73 194.30 420.57 195.16Q421.41 196.01 422.80 196.01Q424 196.01 424.78 195.54Q425.56 195.07 425.73 194.28L427.89 194.28Q427.67 195.94 426.28 196.91Q424.89 197.88 422.80 197.88M419.73 189.24L419.73 189.91L425.87 189.91L425.87 189.24Q425.87 187.68 425.07 186.83Q424.26 185.98 422.80 185.98Q421.34 185.98 420.53 186.83Q419.73 187.68 419.73 189.24" fill="white" fill-opacity="0.7"/>
<path d="M451.79 197.88Q449.39 197.88 447.95 196.54Q446.51 195.19 446.51 192.84L446.51 189.24Q446.51 186.89 447.95 185.54Q449.39 184.20 451.79 184.20Q454.07 184.20 455.48 185.42Q456.88 186.65 456.95 188.76L454.79 188.76Q454.72 187.49 453.93 186.80Q453.14 186.12 451.79 186.12Q450.38 186.12 449.52 186.92Q448.67 187.73 448.67 189.22L448.67 192.84Q448.67 194.33 449.52 195.14Q450.38 195.96 451.79 195.96Q453.14 195.96 453.93 195.26Q454.72 194.57 454.79 193.32L456.95 193.32Q456.88 195.43 455.48 196.66Q454.07 197.88 451.79 197.88" fill="white" fill-opacity="0.7"/>
<path d="M465.98 197.88Q463.70 197.88 462.33 196.52Q460.96 195.17 460.96 192.84L460.96 184.44L463.12 184.44L463.12 192.84Q463.12 194.28 463.89 195.13Q464.66 195.98 465.98 195.98Q467.32 195.98 468.10 195.13Q468.88 194.28 468.88 192.84L468.88 184.44L471.04 184.44L471.04 192.84Q471.04 195.17 469.65 196.52Q468.26 197.88 465.98 197.88" fill="white" fill-opacity="0.7"/>
<path d="M480.93 197.83L479.87 197.83Q477.66 197.83 476.45 196.84Q475.24 195.84 475.24 194.02L477.40 194.02Q477.40 194.93 478.05 195.44Q478.70 195.96 479.87 195.96L480.93 195.96Q482.13 195.96 482.79 195.43Q483.45 194.90 483.45 193.94Q483.45 192.24 481.89 192.02L478.24 191.50Q476.90 191.30 476.15 190.38Q475.41 189.46 475.41 187.94Q475.41 186.22 476.60 185.23Q477.78 184.25 479.87 184.25L480.93 184.25Q482.85 184.25 484.06 185.20Q485.27 186.14 485.37 187.68L483.18 187.68Q483.14 186.98 482.52 186.53Q481.91 186.07 480.93 186.07L479.87 186.07Q478.77 186.07 478.14 186.58Q477.52 187.08 477.52 187.94Q477.52 189.34 478.79 189.53L482.20 190.01Q485.56 190.49 485.56 193.94Q485.56 195.79 484.35 196.81Q483.14 197.83 480.93 197.83" fill="white" fill-opacity="0.7"/>
<path d="M499.96 197.64L496.12 197.64Q494.49 197.64 493.50 196.69Q492.52 195.74 492.52 194.16L492.52 186.41L488.73 186.41L488.73 184.44L492.52 184.44L492.52 180.72L494.68 180.72L494.68 184.44L500.08 184.44L500.08 186.41L494.68 186.41L494.68 194.16Q494.68 194.83 495.08 195.25Q495.47 195.67 496.12 195.67L499.96 195.67" fill="white" fill-opacity="0.7"/>
<path d="M509.20 197.83Q506.82 197.83 505.42 196.44Q504.02 195.05 504.02 192.55L504.02 189.53Q504.02 187.01 505.41 185.63Q506.80 184.25 509.20 184.25Q511.60 184.25 512.99 185.63Q514.38 187.01 514.38 189.53L514.38 192.55Q514.38 195.05 512.98 196.44Q511.58 197.83 509.20 197.83M509.20 195.91Q510.62 195.91 511.42 195.12Q512.22 194.33 512.22 192.79L512.22 189.29Q512.22 187.75 511.42 186.96Q510.62 186.17 509.20 186.17Q507.81 186.17 506.99 186.96Q506.18 187.75 506.18 189.29L506.18 192.79Q506.18 194.33 506.99 195.12Q507.81 195.91 509.20 195.91" fill="white" fill-opacity="0.7"/>
<path d="M519.86 197.64L517.84 197.64L517.84 184.44L519.71 184.44L519.71 186.19L519.76 186.19Q519.88 185.30 520.47 184.75Q521.06 184.20 521.97 184.20Q522.83 184.20 523.43 184.70Q524.03 185.21 524.30 186.07L524.32 186.07Q524.49 185.21 525.08 184.70Q525.66 184.20 526.58 184.20Q527.85 184.20 528.60 185.15Q529.36 186.10 529.36 187.61L529.36 197.64L527.34 197.64L527.34 187.58Q527.34 186.79 526.96 186.32Q526.58 185.86 525.90 185.86Q525.26 185.86 524.87 186.31Q524.49 186.77 524.49 187.56L524.49 197.64L522.71 197.64L522.71 187.58Q522.71 186.79 522.33 186.32Q521.94 185.86 521.30 185.86Q520.62 185.86 520.24 186.31Q519.86 186.77 519.86 187.56" fill="white" fill-opacity="0.7"/>
<path d="M551.25 197.88Q549.21 197.88 548.01 196.74Q546.81 195.60 546.81 193.75Q546.81 192.53 547.36 191.62Q547.91 190.70 548.90 190.19Q549.88 189.67 551.15 189.67L555.23 189.67L555.23 188.64Q555.23 186.07 552.42 186.07Q551.18 186.07 550.41 186.53Q549.64 186.98 549.59 187.80L547.43 187.80Q547.55 186.24 548.88 185.22Q550.22 184.20 552.42 184.20Q554.82 184.20 556.11 185.35Q557.39 186.50 557.39 188.57L557.39 197.64L555.26 197.64L555.26 195.24L555.21 195.24Q555.02 196.46 553.98 197.17Q552.95 197.88 551.25 197.88M551.78 196.06Q553.36 196.06 554.30 195.29Q555.23 194.52 555.23 193.20L555.23 191.35L551.39 191.35Q550.34 191.35 549.68 191.99Q549.02 192.62 549.02 193.68Q549.02 194.78 549.75 195.42Q550.48 196.06 551.78 196.06" fill="white" fill-opacity="0.7"/>
<path d="M563.97 201.96L561.81 201.96L561.81 184.44L563.97 184.44L563.97 186.96L563.99 186.96Q564.16 185.66 565.12 184.93Q566.08 184.20 567.57 184.20Q569.56 184.20 570.74 185.51Q571.91 186.82 571.91 189.10L571.91 192.96Q571.91 195.24 570.74 196.56Q569.56 197.88 567.57 197.88Q566.08 197.88 565.12 197.14Q564.16 196.39 563.99 195.12L563.92 195.12L563.97 198.12L563.97 201.96M566.85 196.01Q568.22 196.01 568.98 195.29Q569.75 194.57 569.75 192.96L569.75 189.12Q569.75 187.49 568.98 186.78Q568.22 186.07 566.85 186.07Q565.53 186.07 564.75 186.91Q563.97 187.75 563.97 189.24L563.97 192.84Q563.97 194.33 564.75 195.17Q565.53 196.01 566.85 196.01" fill="white" fill-opacity="0.7"/>
<path d="M578.37 201.96L576.21 201.96L576.21 184.44L578.37 184.44L578.37 186.96L578.39 186.96Q578.56 185.66 579.52 184.93Q580.48 184.20 581.97 184.20Q583.96 184.20 585.14 185.51Q586.31 186.82 586.31 189.10L586.31 192.96Q586.31 195.24 585.14 196.56Q583.96 197.88 581.97 197.88Q580.48 197.88 579.52 197.14Q578.56 196.39 578.39 195.12L578.32 195.12L578.37 198.12L578.37 201.96M581.25 196.01Q582.62 196.01 583.38 195.29Q584.15 194.57 584.15 192.96L584.15 189.12Q584.15 187.49 583.38 186.78Q582.62 186.07 581.25 186.07Q579.93 186.07 579.15 186.91Q578.37 187.75 578.37 189.24L578.37 192.84Q578.37 194.33 579.15 195.17Q579.93 196.01 581.25 196.01" fill="white" fill-opacity="0.7"/>
<path d="M596.13 197.83L595.07 197.83Q592.86 197.83 591.65 196.84Q590.44 195.84 590.44 194.02L592.60 194.02Q592.60 194.93 593.25 195.44Q593.90 195.96 595.07 195.96L596.13 195.96Q597.33 195.96 597.99 195.43Q598.65 194.90 598.65 193.94Q598.65 192.24 597.09 192.02L593.44 191.50Q592.10 191.30 591.35 190.38Q590.61 189.46 590.61 187.94Q590.61 186.22 591.80 185.23Q592.98 184.25 595.07 184.25L596.13 184.25Q598.05 184.25 599.26 185.20Q600.47 186.14 600.57 187.68L598.38 187.68Q598.34 186.98 597.72 186.53Q597.11 186.07 596.13 186.07L595.07 186.07Q593.97 186.07 593.34 186.58Q592.72 187.08 592.72 187.94Q592.72 189.34 593.99 189.53L597.40 190.01Q600.76 190.49 600.76 193.94Q600.76 195.79 599.55 196.81Q598.34 197.83 596.13 197.83" fill="white" fill-opacity="0.7"/>
<path d="M624.52 197.64L622.36 197.64L622.36 188.21L618.52 188.21L618.52 186.24L622.36 186.24L622.36 183.48Q622.36 181.92 623.34 181.02Q624.33 180.12 626.06 180.12L629.92 180.12L629.92 182.09L626.06 182.09Q624.52 182.09 624.52 183.48L624.52 186.24L629.92 186.24L629.92 188.21L624.52 188.21" fill="white" fill-opacity="0.7"/>
<path d="M638.80 197.83Q636.42 197.83 635.02 196.44Q633.62 195.05 633.62 192.55L633.62 189.53Q633.62 187.01 635.01 185.63Q636.40 184.25 638.80 184.25Q641.20 184.25 642.59 185.63Q643.98 187.01 643.98 189.53L643.98 192.55Q643.98 195.05 642.58 196.44Q641.18 197.83 638.80 197.83M638.80 195.91Q640.22 195.91 641.02 195.12Q641.82 194.33 641.82 192.79L641.82 189.29Q641.82 187.75 641.02 186.96Q640.22 186.17 638.80 186.17Q637.41 186.17 636.59 186.96Q635.78 187.75 635.78 189.29L635.78 192.79Q635.78 194.33 636.59 195.12Q637.41 195.91 638.80 195.91" fill="white" fill-opacity="0.7"/>
<path d="M650.85 197.64L648.69 197.64L648.69 184.44L650.85 184.44L650.85 186.96L650.90 186.96Q651.06 185.69 651.98 184.94Q652.89 184.20 654.42 184.20Q656.49 184.20 657.60 185.44Q658.72 186.67 658.72 188.95L658.72 190.08L656.56 190.08L656.56 188.95Q656.56 186.07 653.75 186.07Q652.34 186.07 651.59 186.89Q650.85 187.70 650.85 189.24" fill="white" fill-opacity="0.7"/>
<path d="M682 197.88Q679.65 197.88 678.28 196.51Q676.91 195.14 676.91 192.60L676.91 185.16Q676.91 182.62 678.28 181.25Q679.65 179.88 682 179.88Q684.35 179.88 685.72 181.25Q687.09 182.62 687.09 185.14L687.09 192.60Q687.09 195.14 685.72 196.51Q684.35 197.88 682 197.88M682 195.94Q683.42 195.94 684.17 195.13Q684.93 194.33 684.93 192.84L684.93 184.92Q684.93 183.43 684.17 182.63Q683.42 181.82 682 181.82Q680.61 181.82 679.84 182.63Q679.07 183.43 679.07 184.92L679.07 192.84Q679.07 194.33 679.84 195.13Q680.61 195.94 682 195.94" fill="white" fill-opacity="0.7"/>
<path d="M693.57 197.64L691.41 197.64L691.41 184.44L693.57 184.44L693.57 186.96L693.59 186.96Q693.76 185.64 694.67 184.92Q695.58 184.20 697.10 184.20Q699.09 184.20 700.26 185.42Q701.44 186.65 701.44 188.76L701.44 197.64L699.28 197.64L699.28 189.14Q699.28 187.63 698.52 186.83Q697.77 186.02 696.47 186.02Q695.13 186.02 694.35 186.86Q693.57 187.70 693.57 189.24" fill="white" fill-opacity="0.7"/>
<path d="M716.80 197.64L712.72 197.64Q710.97 197.64 709.92 196.62Q708.88 195.60 708.88 193.92L708.88 182.09L704.32 182.09L704.32 180.12L711.04 180.12L711.04 193.92Q711.04 194.74 711.50 195.20Q711.95 195.67 712.72 195.67L716.80 195.67" fill="white" fill-opacity="0.7"/>
<path d="M731.32 197.64L720.04 197.64L720.04 195.67L724.72 195.67L724.72 186.41L720.52 186.41L720.52 184.44L726.88 184.44L726.88 195.67L731.32 195.67L731.32 197.64M725.56 182.06Q724.77 182.06 724.31 181.66Q723.86 181.25 723.86 180.55Q723.86 179.83 724.31 179.41Q724.77 178.99 725.56 178.99Q726.35 178.99 726.81 179.41Q727.26 179.83 727.26 180.55Q727.26 181.25 726.81 181.66Q726.35 182.06 725.56 182.06" fill="white" fill-opacity="0.7"/>
<path d="M736.77 197.64L734.61 197.64L734.61 184.44L736.77 184.44L736.77 186.96L736.79 186.96Q736.96 185.64 737.87 184.92Q738.78 184.20 740.30 184.20Q742.29 184.20 743.46 185.42Q744.64 186.65 744.64 188.76L744.64 197.64L742.48 197.64L742.48 189.14Q742.48 187.63 741.72 186.83Q740.97 186.02 739.67 186.02Q738.33 186.02 737.55 186.86Q736.77 187.70 736.77 189.24" fill="white" fill-opacity="0.7"/>
<path d="M754 197.88Q751.67 197.88 750.24 196.48Q748.82 195.07 748.82 192.60L748.82 189.48Q748.82 187.01 750.24 185.60Q751.67 184.20 754 184.20Q755.56 184.20 756.72 184.82Q757.89 185.45 758.54 186.58Q759.18 187.70 759.18 189.24L759.18 191.59L750.93 191.59L750.93 192.84Q750.93 194.30 751.77 195.16Q752.61 196.01 754 196.01Q755.20 196.01 755.98 195.54Q756.76 195.07 756.93 194.28L759.09 194.28Q758.87 195.94 757.48 196.91Q756.09 197.88 754 197.88M750.93 189.24L750.93 189.91L757.07 189.91L757.07 189.24Q757.07 187.68 756.27 186.83Q755.46 185.98 754 185.98Q752.54 185.98 751.73 186.83Q750.93 187.68 750.93 189.24" fill="white" fill-opacity="0.7"/>
<path d="M783.16 197.64L777.83 197.64L777.83 180.12L782.80 180.12Q785.20 180.12 786.56 181.32Q787.91 182.52 787.91 184.66Q787.91 186 787.06 187.08Q786.21 188.16 784.84 188.42L784.84 188.50Q785.87 188.62 786.65 189.22Q787.43 189.82 787.88 190.74Q788.32 191.66 788.32 192.77Q788.32 195.02 786.94 196.33Q785.56 197.64 783.16 197.64M779.94 182.06L779.94 187.58L782.78 187.58Q784.17 187.58 784.97 186.84Q785.78 186.10 785.78 184.82Q785.78 183.55 784.98 182.81Q784.19 182.06 782.80 182.06L779.94 182.06M779.94 189.46L779.94 195.70L782.92 195.70Q784.43 195.70 785.31 194.89Q786.18 194.09 786.18 192.70Q786.18 191.26 785.31 190.36Q784.43 189.46 782.92 189.46" fill="white" fill-opacity="0.7"/>
<path d="M797.20 197.83Q794.82 197.83 793.42 196.44Q792.02 195.05 792.02 192.55L792.02 189.53Q792.02 187.01 793.41 185.63Q794.80 184.25 797.20 184.25Q799.60 184.25 800.99 185.63Q802.38 187.01 802.38 189.53L802.38 192.55Q802.38 195.05 800.98 196.44Q799.58 197.83 797.20 197.83M797.20 195.91Q798.62 195.91 799.42 195.12Q800.22 194.33 800.22 192.79L800.22 189.29Q800.22 187.75 799.42 186.96Q798.62 186.17 797.20 186.17Q795.81 186.17 794.99 186.96Q794.18 187.75 794.18 189.29L794.18 192.79Q794.18 194.33 794.99 195.12Q795.81 195.91 797.20 195.91" fill="white" fill-opacity="0.7"/>
<path d="M811.60 197.83Q809.22 197.83 807.82 196.44Q806.42 195.05 806.42 192.55L806.42 189.53Q806.42 187.01 807.81 185.63Q809.20 184.25 811.60 184.25Q814 184.25 815.39 185.63Q816.78 187.01 816.78 189.53L816.78 192.55Q816.78 195.05 815.38 196.44Q813.98 197.83 811.60 197.83M811.60 195.91Q813.02 195.91 813.82 195.12Q814.62 194.33 814.62 192.79L814.62 189.29Q814.62 187.75 813.82 186.96Q813.02 186.17 811.60 186.17Q810.21 186.17 809.39 186.96Q808.58 187.75 808.58 189.29L808.58 192.79Q808.58 194.33 809.39 195.12Q810.21 195.91 811.60 195.91" fill="white" fill-opacity="0.7"/>
<path d="M823.29 197.64L821.13 197.64L821.13 180.12L823.29 180.12L823.29 189.89L825.81 189.89L829.50 184.44L831.98 184.44L827.73 190.73L832.22 197.64L829.70 197.64L825.86 191.76L823.29 191.76" fill="white" fill-opacity="0.7"/>
<path d="M846.52 197.64L835.24 197.64L835.24 195.67L839.92 195.67L839.92 186.41L835.72 186.41L835.72 184.44L842.08 184.44L842.08 195.67L846.52 195.67L846.52 197.64M840.76 182.06Q839.97 182.06 839.51 181.66Q839.06 181.25 839.06 180.55Q839.06 179.83 839.51 179.41Q839.97 178.99 840.76 178.99Q841.55 178.99 842.01 179.41Q842.46 179.83 842.46 180.55Q842.46 181.25 842.01 181.66Q841.55 182.06 840.76 182.06" fill="white" fill-opacity="0.7"/>
<path d="M851.97 197.64L849.81 197.64L849.81 184.44L851.97 184.44L851.97 186.96L851.99 186.96Q852.16 185.64 853.07 184.92Q853.98 184.20 855.50 184.20Q857.49 184.20 858.66 185.42Q859.84 186.65 859.84 188.76L859.84 197.64L857.68 197.64L857.68 189.14Q857.68 187.63 856.92 186.83Q856.17 186.02 854.87 186.02Q853.53 186.02 852.75 186.86Q851.97 187.70 851.97 189.24" fill="white" fill-opacity="0.7"/>
<path d="M869.56 201.96L865.86 201.96L865.86 199.99L869.58 199.99Q870.71 199.99 871.36 199.36Q872.01 198.72 872.01 197.64L872.01 196.44L872.06 194.28L871.98 194.28Q871.79 195.46 870.86 196.09Q869.92 196.73 868.50 196.73Q866.46 196.73 865.29 195.43Q864.11 194.14 864.11 191.88L864.11 189.10Q864.11 186.84 865.29 185.52Q866.46 184.20 868.50 184.20Q869.92 184.20 870.86 184.87Q871.79 185.54 871.98 186.72L872.03 186.72L872.03 184.44L874.17 184.44L874.17 197.64Q874.17 199.63 872.93 200.80Q871.70 201.96 869.56 201.96M869.15 194.93Q870.50 194.93 871.26 194.09Q872.03 193.25 872.03 191.76L872.03 189.24Q872.03 187.75 871.26 186.91Q870.50 186.07 869.15 186.07Q867.78 186.07 867.03 186.86Q866.27 187.66 866.27 189L866.27 192Q866.27 193.34 867.03 194.14Q867.78 194.93 869.15 194.93" fill="white" fill-opacity="0.7"/>
<path d="M883.60 197.88Q882.71 197.88 882.17 197.35Q881.63 196.82 881.63 195.98Q881.63 195.10 882.17 194.54Q882.71 193.99 883.60 193.99Q884.49 193.99 885.03 194.54Q885.57 195.10 885.57 195.98Q885.57 196.82 885.03 197.35Q884.49 197.88 883.60 197.88" fill="white" fill-opacity="0.7"/>
<path d="M912.40 197.88Q910.05 197.88 908.68 196.51Q907.31 195.14 907.31 192.60L907.31 185.16Q907.31 182.62 908.68 181.25Q910.05 179.88 912.40 179.88Q914.75 179.88 916.12 181.25Q917.49 182.62 917.49 185.14L917.49 192.60Q917.49 195.14 916.12 196.51Q914.75 197.88 912.40 197.88M912.40 195.94Q913.82 195.94 914.57 195.13Q915.33 194.33 915.33 192.84L915.33 184.92Q915.33 183.43 914.57 182.63Q913.82 181.82 912.40 181.82Q911.01 181.82 910.24 182.63Q909.47 183.43 909.47 184.92L909.47 192.84Q909.47 194.33 910.24 195.13Q911.01 195.94 912.40 195.94" fill="white" fill-opacity="0.7"/>
<path d="M926.78 197.88Q924.50 197.88 923.13 196.52Q921.76 195.17 921.76 192.84L921.76 184.44L923.92 184.44L923.92 192.84Q923.92 194.28 924.69 195.13Q925.46 195.98 926.78 195.98Q928.12 195.98 928.90 195.13Q929.68 194.28 929.68 192.84L929.68 184.44L931.84 184.44L931.84 192.84Q931.84 195.17 930.45 196.52Q929.06 197.88 926.78 197.88" fill="white" fill-opacity="0.7"/>
<path d="M938.85 197.64L936.69 197.64L936.69 184.44L938.85 184.44L938.85 186.96L938.90 186.96Q939.06 185.69 939.98 184.94Q940.89 184.20 942.42 184.20Q944.49 184.20 945.60 185.44Q946.72 186.67 946.72 188.95L946.72 190.08L944.56 190.08L944.56 188.95Q944.56 186.07 941.75 186.07Q940.34 186.07 939.59 186.89Q938.85 187.70 938.85 189.24" fill="white" fill-opacity="0.7"/>
<path d="M970.12 197.64L967.96 197.64L967.96 188.21L964.12 188.21L964.12 186.24L967.96 186.24L967.96 183.48Q967.96 181.92 968.94 181.02Q969.93 180.12 971.66 180.12L975.52 180.12L975.52 182.09L971.66 182.09Q970.12 182.09 970.12 183.48L970.12 186.24L975.52 186.24L975.52 188.21L970.12 188.21" fill="white" fill-opacity="0.7"/>
<path d="M990.40 197.64L986.32 197.64Q984.57 197.64 983.52 196.62Q982.48 195.60 982.48 193.92L982.48 182.09L977.92 182.09L977.92 180.12L984.64 180.12L984.64 193.92Q984.64 194.74 985.10 195.20Q985.55 195.67 986.32 195.67L990.40 195.67" fill="white" fill-opacity="0.7"/>
<path d="M998.80 197.88Q996.47 197.88 995.04 196.48Q993.62 195.07 993.62 192.60L993.62 189.48Q993.62 187.01 995.04 185.60Q996.47 184.20 998.80 184.20Q1000.36 184.20 1001.52 184.82Q1002.69 185.45 1003.34 186.58Q1003.98 187.70 1003.98 189.24L1003.98 191.59L995.73 191.59L995.73 192.84Q995.73 194.30 996.57 195.16Q997.41 196.01 998.80 196.01Q1000 196.01 1000.78 195.54Q1001.56 195.07 1001.73 194.28L1003.89 194.28Q1003.67 195.94 1002.28 196.91Q1000.89 197.88 998.80 197.88M995.73 189.24L995.73 189.91L1001.87 189.91L1001.87 189.24Q1001.87 187.68 1001.07 186.83Q1000.26 185.98 998.80 185.98Q997.34 185.98 996.53 186.83Q995.73 187.68 995.73 189.24" fill="white" fill-opacity="0.7"/>
<path d="M1009.74 197.64L1007.20 197.64L1011.88 190.85L1007.49 184.44L1010.03 184.44L1012.65 188.52Q1012.82 188.78 1012.97 189.10Q1013.13 189.41 1013.22 189.60Q1013.30 189.41 1013.45 189.10Q1013.61 188.78 1013.78 188.52L1016.39 184.44L1018.94 184.44L1014.54 190.87L1019.20 197.64L1016.66 197.64L1013.82 193.32Q1013.66 193.06 1013.50 192.71Q1013.34 192.36 1013.22 192.14Q1013.13 192.36 1012.95 192.71Q1012.77 193.06 1012.58 193.32" fill="white" fill-opacity="0.7"/>
<path d="M1033.72 197.64L1022.44 197.64L1022.44 195.67L1027.12 195.67L1027.12 186.41L1022.92 186.41L1022.92 184.44L1029.28 184.44L1029.28 195.67L1033.72 195.67L1033.72 197.64M1027.96 182.06Q1027.17 182.06 1026.71 181.66Q1026.26 181.25 1026.26 180.55Q1026.26 179.83 1026.71 179.41Q1027.17 178.99 1027.96 178.99Q1028.75 178.99 1029.21 179.41Q1029.66 179.83 1029.66 180.55Q1029.66 181.25 1029.21 181.66Q1028.75 182.06 1027.96 182.06" fill="white" fill-opacity="0.7"/>
<path d="M1042.77 197.88Q1041.28 197.88 1040.32 197.15Q1039.36 196.42 1039.19 195.12L1039.17 195.12L1039.17 197.64L1037.01 197.64L1037.01 180.12L1039.17 180.12L1039.17 183.96L1039.12 186.96L1039.14 186.96Q1039.34 185.69 1040.31 184.94Q1041.28 184.20 1042.77 184.20Q1044.76 184.20 1045.94 185.52Q1047.11 186.84 1047.11 189.12L1047.11 192.98Q1047.11 195.24 1045.94 196.56Q1044.76 197.88 1042.77 197.88M1042.05 196.01Q1043.42 196.01 1044.18 195.29Q1044.95 194.57 1044.95 192.96L1044.95 189.12Q1044.95 187.49 1044.18 186.78Q1043.42 186.07 1042.05 186.07Q1040.73 186.07 1039.95 186.91Q1039.17 187.75 1039.17 189.24L1039.17 192.84Q1039.17 194.33 1039.95 195.17Q1040.73 196.01 1042.05 196.01" fill="white" fill-opacity="0.7"/>
<path d="M1062.40 197.64L1058.32 197.64Q1056.57 197.64 1055.52 196.62Q1054.48 195.60 1054.48 193.92L1054.48 182.09L1049.92 182.09L1049.92 180.12L1056.64 180.12L1056.64 193.92Q1056.64 194.74 1057.10 195.20Q1057.55 195.67 1058.32 195.67L1062.40 195.67" fill="white" fill-opacity="0.7"/>
<path d="M1070.80 197.88Q1068.47 197.88 1067.04 196.48Q1065.62 195.07 1065.62 192.60L1065.62 189.48Q1065.62 187.01 1067.04 185.60Q1068.47 184.20 1070.80 184.20Q1072.36 184.20 1073.52 184.82Q1074.69 185.45 1075.34 186.58Q1075.98 187.70 1075.98 189.24L1075.98 191.59L1067.73 191.59L1067.73 192.84Q1067.73 194.30 1068.57 195.16Q1069.41 196.01 1070.80 196.01Q1072 196.01 1072.78 195.54Q1073.56 195.07 1073.73 194.28L1075.89 194.28Q1075.67 195.94 1074.28 196.91Q1072.89 197.88 1070.80 197.88M1067.73 189.24L1067.73 189.91L1073.87 189.91L1073.87 189.24Q1073.87 187.68 1073.07 186.83Q1072.26 185.98 1070.80 185.98Q1069.34 185.98 1068.53 186.83Q1067.73 187.68 1067.73 189.24" fill="white" fill-opacity="0.7"/>
<path d="M1095.81 197.64L1093.60 197.64L1098.16 180.12L1101.06 180.12L1105.60 197.64L1103.42 197.64L1102.26 192.98L1096.96 192.98L1095.81 197.64M1098.74 185.74L1097.39 191.16L1101.81 191.16L1100.46 185.76Q1100.08 184.22 1099.86 183.19Q1099.65 182.16 1099.60 181.85Q1099.55 182.16 1099.34 183.19Q1099.12 184.22 1098.74 185.74" fill="white" fill-opacity="0.7"/>
<path d="M1111.17 197.64L1109.01 197.64L1109.01 180.12L1114.65 180.12Q1117.10 180.12 1118.55 181.52Q1120 182.93 1120 185.28Q1120 187.63 1118.55 189.04Q1117.10 190.44 1114.65 190.44L1111.17 190.44L1111.17 197.64M1111.17 182.06L1111.17 188.50L1114.65 188.50Q1116.06 188.50 1116.92 187.62Q1117.77 186.74 1117.77 185.28Q1117.77 183.79 1116.92 182.93Q1116.06 182.06 1114.65 182.06" fill="white" fill-opacity="0.7"/>
<path d="M1133.08 197.64L1123.72 197.64L1123.72 195.67L1127.30 195.67L1127.30 182.09L1123.72 182.09L1123.72 180.12L1133.08 180.12L1133.08 182.09L1129.50 182.09L1129.50 195.67L1133.08 195.67" fill="white" fill-opacity="0.7"/>
<path d="M74.37 233.96L72.21 233.96L72.21 216.44L74.37 216.44L74.37 218.96L74.39 218.96Q74.56 217.66 75.52 216.93Q76.48 216.20 77.97 216.20Q79.96 216.20 81.14 217.51Q82.31 218.82 82.31 221.10L82.31 224.96Q82.31 227.24 81.14 228.56Q79.96 229.88 77.97 229.88Q76.48 229.88 75.52 229.14Q74.56 228.39 74.39 227.12L74.32 227.12L74.37 230.12L74.37 233.96M77.25 228.01Q78.62 228.01 79.38 227.29Q80.15 226.57 80.15 224.96L80.15 221.12Q80.15 219.49 79.38 218.78Q78.62 218.07 77.25 218.07Q75.93 218.07 75.15 218.91Q74.37 219.75 74.37 221.24L74.37 224.84Q74.37 226.33 75.15 227.17Q75.93 228.01 77.25 228.01" fill="white" fill-opacity="0.7"/>
<path d="M89.25 229.64L87.09 229.64L87.09 216.44L89.25 216.44L89.25 218.96L89.30 218.96Q89.46 217.69 90.38 216.94Q91.29 216.20 92.82 216.20Q94.89 216.20 96 217.44Q97.12 218.67 97.12 220.95L97.12 222.08L94.96 222.08L94.96 220.95Q94.96 218.07 92.15 218.07Q90.74 218.07 89.99 218.89Q89.25 219.70 89.25 221.24" fill="white" fill-opacity="0.7"/>
<path d="MNaN 229.83Q103.62 229.83 102.22 228.44Q100.82 227.05 100.82 224.55L100.82 221.53Q100.82 219.01 102.21 217.63Q103.60 216.25 NaN 216.25Q108.40 216.25 109.79 217.63Q111.18 219.01 111.18 221.53L111.18 224.55Q111.18 227.05 109.78 228.44Q108.38 229.83 NaN 229.83MNaN 227.91Q107.42 227.91 108.22 227.12Q109.02 226.33 109.02 224.79L109.02 221.29Q109.02 219.75 108.22 218.96Q107.42 218.17 NaN 218.17Q104.61 218.17 103.79 218.96Q102.98 219.75 102.98 221.29L102.98 224.79Q102.98 226.33 103.79 227.12Q104.61 227.91 NaN 227.91" fill="white" fill-opacity="0.7"/>
<path d="M121.82 229.64L118.98 229.64L114.50 216.44L116.82 216.44L119.70 225.32Q119.97 226.11 120.16 226.84Q120.35 227.58 120.45 227.98Q120.57 227.58 120.74 226.84Q120.90 226.11 121.14 225.32L124.02 216.44L126.30 216.44" fill="white" fill-opacity="0.7"/>
<path d="M140.92 229.64L129.64 229.64L129.64 227.67L134.32 227.67L134.32 218.41L130.12 218.41L130.12 216.44L136.48 216.44L136.48 227.67L140.92 227.67L140.92 229.64M135.16 214.06Q134.37 214.06 133.91 213.66Q133.46 213.25 133.46 212.55Q133.46 211.83 133.91 211.41Q134.37 210.99 135.16 210.99Q135.95 210.99 136.41 211.41Q136.86 211.83 136.86 212.55Q136.86 213.25 136.41 213.66Q135.95 214.06 135.16 214.06" fill="white" fill-opacity="0.7"/>
<path d="M148.43 229.88Q146.46 229.88 145.28 228.56Q144.09 227.24 144.09 224.98L144.09 221.12Q144.09 218.84 145.26 217.52Q146.44 216.20 148.43 216.20Q149.92 216.20 150.89 216.94Q151.86 217.69 152.06 218.96L152.08 218.96L152.03 215.96L152.03 212.12L154.19 212.12L154.19 229.64L152.03 229.64L152.03 227.12L152.01 227.12Q151.84 228.42 150.88 229.15Q149.92 229.88 148.43 229.88M149.15 228.01Q150.50 228.01 151.26 227.17Q152.03 226.33 152.03 224.84L152.03 221.24Q152.03 219.75 151.26 218.91Q150.50 218.07 149.15 218.07Q147.78 218.07 147.02 218.78Q146.25 219.49 146.25 221.12L146.25 224.96Q146.25 226.57 147.02 227.29Q147.78 228.01 149.15 228.01" fill="white" fill-opacity="0.7"/>
<path d="M163.60 229.88Q161.27 229.88 159.84 228.48Q158.42 227.07 158.42 224.60L158.42 221.48Q158.42 219.01 159.84 217.60Q161.27 216.20 163.60 216.20Q165.16 216.20 166.32 216.82Q167.49 217.45 168.14 218.58Q168.78 219.70 168.78 221.24L168.78 223.59L160.53 223.59L160.53 224.84Q160.53 226.30 161.37 227.16Q162.21 228.01 163.60 228.01Q164.80 228.01 165.58 227.54Q166.36 227.07 166.53 226.28L168.69 226.28Q168.47 227.94 167.08 228.91Q165.69 229.88 163.60 229.88M160.53 221.24L160.53 221.91L166.67 221.91L166.67 221.24Q166.67 219.68 165.87 218.83Q165.06 217.98 163.60 217.98Q162.14 217.98 161.33 218.83Q160.53 219.68 160.53 221.24" fill="white" fill-opacity="0.7"/>
<path d="M178.53 229.83L177.47 229.83Q175.26 229.83 174.05 228.84Q172.84 227.84 172.84 226.02LNaN 226.02QNaN 226.93 175.65 227.44Q176.30 227.96 177.47 227.96L178.53 227.96Q179.73 227.96 180.39 227.43Q181.05 226.90 181.05 225.94Q181.05 224.24 179.49 224.02L175.84 223.50Q174.50 223.30 173.75 222.38Q173.01 221.46 173.01 219.94Q173.01 218.22 174.20 217.23Q175.38 216.25 177.47 216.25L178.53 216.25Q180.45 216.25 181.66 217.20Q182.87 218.14 182.97 219.68L180.78 219.68Q180.74 218.98 180.12 218.53Q179.51 218.07 178.53 218.07L177.47 218.07Q176.37 218.07 175.74 218.58Q175.12 219.08 175.12 219.94Q175.12 221.34 176.39 221.53L179.80 222.01Q183.16 222.49 183.16 225.94Q183.16 227.79 181.95 228.81Q180.74 229.83 178.53 229.83" fill="white" fill-opacity="0.7"/>
<path d="M203.06 229.64L201.04 229.64L201.04 216.44L202.91 216.44L202.91 218.19L202.96 218.19Q203.08 217.30 203.67 216.75Q204.26 216.20 205.17 216.20Q206.03 216.20 206.63 216.70Q207.23 217.21 207.50 218.07L207.52 218.07Q207.69 217.21 208.28 216.70Q208.86 216.20 209.78 216.20Q211.05 216.20 211.80 217.15Q212.56 218.10 212.56 219.61L212.56 229.64L210.54 229.64L210.54 219.58Q210.54 218.79 210.16 218.32Q209.78 217.86 209.10 217.86Q208.46 217.86 208.07 218.31Q207.69 218.77 207.69 219.56L207.69 229.64L205.91 229.64L205.91 219.58Q205.91 218.79 205.53 218.32Q205.14 217.86 204.50 217.86Q203.82 217.86 203.44 218.31Q203.06 218.77 203.06 219.56" fill="white" fill-opacity="0.7"/>
<path d="M220.05 229.88Q218.01 229.88 216.81 228.74Q215.61 227.60 215.61 225.75Q215.61 224.53 216.16 223.62Q216.71 222.70 217.70 222.19Q218.68 221.67 219.95 221.67L224.03 221.67L224.03 220.64Q224.03 218.07 221.22 218.07Q219.98 218.07 219.21 218.53Q218.44 218.98 218.39 219.80L216.23 219.80Q216.35 218.24 217.68 217.22Q219.02 216.20 221.22 216.20Q223.62 216.20 224.91 217.35Q226.19 218.50 226.19 220.57L226.19 229.64L224.06 229.64L224.06 227.24L224.01 227.24Q223.82 228.46 222.78 229.17Q221.75 229.88 220.05 229.88M220.58 228.06Q222.16 228.06 223.10 227.29Q224.03 226.52 224.03 225.20L224.03 223.35L220.19 223.35Q219.14 223.35 218.48 223.99Q217.82 224.62 217.82 225.68Q217.82 226.78 218.55 227.42Q219.28 228.06 220.58 228.06" fill="white" fill-opacity="0.7"/>
<path d="M232.77 229.64L230.61 229.64L230.61 216.44L232.77 216.44L232.77 218.96L232.79 218.96Q232.96 217.64 233.87 216.92Q234.78 216.20 236.30 216.20Q238.29 216.20 239.46 217.42Q240.64 218.65 240.64 220.76L240.64 229.64L238.48 229.64L238.48 221.14Q238.48 219.63 237.72 218.83Q236.97 218.02 235.67 218.02Q234.33 218.02 233.55 218.86Q232.77 219.70 232.77 221.24" fill="white" fill-opacity="0.7"/>
<path d="M249.33 233.96L247.07 233.96L249.02 228.82L244.10 216.44L246.42 216.44L249.54 224.60Q249.74 225.08 249.90 225.61Q250.07 226.14 250.14 226.52Q250.22 226.14 250.38 225.61Q250.55 225.08 250.72 224.60L253.62 216.44L255.90 216.44" fill="white" fill-opacity="0.7"/>
<path d="M278.80 229.83Q276.42 229.83 275.02 228.44Q273.62 227.05 273.62 224.55L273.62 221.53Q273.62 219.01 275.01 217.63Q276.40 216.25 278.80 216.25Q281.20 216.25 282.59 217.63Q283.98 219.01 283.98 221.53L283.98 224.55Q283.98 227.05 282.58 228.44Q281.18 229.83 278.80 229.83M278.80 227.91Q280.22 227.91 281.02 227.12Q281.82 226.33 281.82 224.79L281.82 221.29Q281.82 219.75 281.02 218.96Q280.22 218.17 278.80 218.17Q277.41 218.17 276.59 218.96Q275.78 219.75 275.78 221.29L275.78 224.79Q275.78 226.33 276.59 227.12Q277.41 227.91 278.80 227.91" fill="white" fill-opacity="0.7"/>
<path d="M290.37 233.96L288.21 233.96L288.21 216.44L290.37 216.44L290.37 218.96L290.39 218.96Q290.56 217.66 291.52 216.93Q292.48 216.20 293.97 216.20Q295.96 216.20 297.14 217.51Q298.31 218.82 298.31 221.10L298.31 224.96Q298.31 227.24 297.14 228.56Q295.96 229.88 293.97 229.88Q292.48 229.88 291.52 229.14Q290.56 228.39 290.39 227.12L290.32 227.12L290.37 230.12L290.37 233.96M293.25 228.01Q294.62 228.01 295.38 227.29Q296.15 226.57 296.15 224.96L296.15 221.12Q296.15 219.49 295.38 218.78Q294.62 218.07 293.25 218.07Q291.93 218.07 291.15 218.91Q290.37 219.75 290.37 221.24L290.37 224.84Q290.37 226.33 291.15 227.17Q291.93 228.01 293.25 228.01" fill="white" fill-opacity="0.7"/>
<path d="M312.76 229.64L308.92 229.64Q307.29 229.64 306.30 228.69Q305.32 227.74 305.32 226.16L305.32 218.41L301.53 218.41L301.53 216.44L305.32 216.44L305.32 212.72L307.48 212.72L307.48 216.44L312.88 216.44L312.88 218.41L307.48 218.41L307.48 226.16Q307.48 226.83 307.88 227.25Q308.27 227.67 308.92 227.67L312.76 227.67" fill="white" fill-opacity="0.7"/>
<path d="M328.12 229.64L316.84 229.64L316.84 227.67L321.52 227.67L321.52 218.41L317.32 218.41L317.32 216.44L323.68 216.44L323.68 227.67L328.12 227.67L328.12 229.64M322.36 214.06Q321.57 214.06 321.11 213.66Q320.66 213.25 320.66 212.55Q320.66 211.83 321.11 211.41Q321.57 210.99 322.36 210.99Q323.15 210.99 323.61 211.41Q324.06 211.83 324.06 212.55Q324.06 213.25 323.61 213.66Q323.15 214.06 322.36 214.06" fill="white" fill-opacity="0.7"/>
<path d="M336.40 229.83Q334.02 229.83 332.62 228.44Q331.22 227.05 331.22 224.55L331.22 221.53Q331.22 219.01 332.61 217.63Q334 216.25 336.40 216.25Q338.80 216.25 340.19 217.63Q341.58 219.01 341.58 221.53L341.58 224.55Q341.58 227.05 340.18 228.44Q338.78 229.83 336.40 229.83M336.40 227.91Q337.82 227.91 338.62 227.12Q339.42 226.33 339.42 224.79L339.42 221.29Q339.42 219.75 338.62 218.96Q337.82 218.17 336.40 218.17Q335.01 218.17 334.19 218.96Q333.38 219.75 333.38 221.29L333.38 224.79Q333.38 226.33 334.19 227.12Q335.01 227.91 336.40 227.91" fill="white" fill-opacity="0.7"/>
<path d="M347.97 229.64L345.81 229.64L345.81 216.44L347.97 216.44L347.97 218.96L347.99 218.96Q348.16 217.64 349.07 216.92Q349.98 216.20 351.50 216.20Q353.49 216.20 354.66 217.42Q355.84 218.65 355.84 220.76L355.84 229.64L353.68 229.64L353.68 221.14Q353.68 219.63 352.92 218.83Q352.17 218.02 350.87 218.02Q349.53 218.02 348.75 218.86Q347.97 219.70 347.97 221.24" fill="white" fill-opacity="0.7"/>
<path d="M365.73 229.83L364.67 229.83Q362.46 229.83 361.25 228.84Q360.04 227.84 360.04 226.02L362.20 226.02Q362.20 226.93 362.85 227.44Q363.50 227.96 364.67 227.96L365.73 227.96Q366.93 227.96 367.59 227.43Q368.25 226.90 368.25 225.94Q368.25 224.24 366.69 224.02L363.04 223.50Q361.70 223.30 360.95 222.38Q360.21 221.46 360.21 219.94Q360.21 218.22 361.40 217.23Q362.58 216.25 364.67 216.25L365.73 216.25Q367.65 216.25 368.86 217.20Q370.07 218.14 370.17 219.68L367.98 219.68Q367.94 218.98 367.32 218.53Q366.71 218.07 365.73 218.07L364.67 218.07Q363.57 218.07 362.94 218.58Q362.32 219.08 362.32 219.94Q362.32 221.34 363.59 221.53L367 222.01Q370.36 222.49 370.36 225.94Q370.36 227.79 369.15 228.81Q367.94 229.83 365.73 229.83" fill="white" fill-opacity="0.7"/>
<path d="M394.12 229.64L391.96 229.64L391.96 220.21L388.12 220.21L388.12 218.24L391.96 218.24L391.96 215.48Q391.96 213.92 392.94 213.02Q393.93 212.12 395.66 212.12L399.52 212.12L399.52 214.09L395.66 214.09Q394.12 214.09 394.12 215.48L394.12 218.24L399.52 218.24L399.52 220.21L394.12 220.21" fill="white" fill-opacity="0.7"/>
<path d="M408.40 229.83Q406.02 229.83 404.62 228.44Q403.22 227.05 403.22 224.55L403.22 221.53Q403.22 219.01 404.61 217.63Q406 216.25 408.40 216.25Q410.80 216.25 412.19 217.63Q413.58 219.01 413.58 221.53L413.58 224.55Q413.58 227.05 412.18 228.44Q410.78 229.83 408.40 229.83M408.40 227.91Q409.82 227.91 410.62 227.12Q411.42 226.33 411.42 224.79L411.42 221.29Q411.42 219.75 410.62 218.96Q409.82 218.17 408.40 218.17Q407.01 218.17 406.19 218.96Q405.38 219.75 405.38 221.29L405.38 224.79Q405.38 226.33 406.19 227.12Q407.01 227.91 408.40 227.91" fill="white" fill-opacity="0.7"/>
<path d="M420.45 229.64L418.29 229.64L418.29 216.44L420.45 216.44L420.45 218.96L420.50 218.96Q420.66 217.69 421.58 216.94Q422.49 216.20 424.02 216.20Q426.09 216.20 427.20 217.44Q428.32 218.67 428.32 220.95L428.32 222.08L426.16 222.08L426.16 220.95Q426.16 218.07 423.35 218.07Q421.94 218.07 421.19 218.89Q420.45 219.70 420.45 221.24" fill="white" fill-opacity="0.7"/>
<path d="M450.45 229.88Q448.41 229.88 447.21 228.74Q446.01 227.60 446.01 225.75Q446.01 224.53 446.56 223.62Q447.11 222.70 448.10 222.19Q449.08 221.67 450.35 221.67L454.43 221.67L454.43 220.64Q454.43 218.07 451.62 218.07Q450.38 218.07 449.61 218.53Q448.84 218.98 448.79 219.80L446.63 219.80Q446.75 218.24 448.08 217.22Q449.42 216.20 451.62 216.20Q454.02 216.20 455.31 217.35Q456.59 218.50 456.59 220.57L456.59 229.64L454.46 229.64L454.46 227.24L454.41 227.24Q454.22 228.46 453.18 229.17Q452.15 229.88 450.45 229.88M450.98 228.06Q452.56 228.06 453.50 227.29Q454.43 226.52 454.43 225.20L454.43 223.35L450.59 223.35Q449.54 223.35 448.88 223.99Q448.22 224.62 448.22 225.68Q448.22 226.78 448.95 227.42Q449.68 228.06 450.98 228.06" fill="white" fill-opacity="0.7"/>
<path d="M467.42 229.64L464.58 229.64L460.10 216.44L462.42 216.44L465.30 225.32Q465.57 226.11 465.76 226.84Q465.95 227.58 466.05 227.98Q466.17 227.58 466.34 226.84Q466.50 226.11 466.74 225.32L469.62 216.44L471.90 216.44" fill="white" fill-opacity="0.7"/>
<path d="M479.25 229.88Q477.21 229.88 476.01 228.74Q474.81 227.60 474.81 225.75Q474.81 224.53 475.36 223.62Q475.91 222.70 476.90 222.19Q477.88 221.67 479.15 221.67L483.23 221.67L483.23 220.64Q483.23 218.07 480.42 218.07Q479.18 218.07 478.41 218.53Q477.64 218.98 477.59 219.80L475.43 219.80Q475.55 218.24 476.88 217.22Q478.22 216.20 480.42 216.20Q482.82 216.20 484.11 217.35Q485.39 218.50 485.39 220.57L485.39 229.64L483.26 229.64L483.26 227.24L483.21 227.24Q483.02 228.46 481.98 229.17Q480.95 229.88 479.25 229.88M479.78 228.06Q481.36 228.06 482.30 227.29Q483.23 226.52 483.23 225.20L483.23 223.35L479.39 223.35Q478.34 223.35 477.68 223.99Q477.02 224.62 477.02 225.68Q477.02 226.78 477.75 227.42Q478.48 228.06 479.78 228.06" fill="white" fill-opacity="0.7"/>
<path d="M500.92 229.64L489.64 229.64L489.64 227.67L494.32 227.67L494.32 218.41L490.12 218.41L490.12 216.44L496.48 216.44L496.48 227.67L500.92 227.67L500.92 229.64M495.16 214.06Q494.37 214.06 493.91 213.66Q493.46 213.25 493.46 212.55Q493.46 211.83 493.91 211.41Q494.37 210.99 495.16 210.99Q495.95 210.99 496.41 211.41Q496.86 211.83 496.86 212.55Q496.86 213.25 496.41 213.66Q495.95 214.06 495.16 214.06" fill="white" fill-opacity="0.7"/>
<path d="M515.20 229.64L511.12 229.64Q509.37 229.64 508.32 228.62Q507.28 227.60 507.28 225.92L507.28 214.09L502.72 214.09L502.72 212.12L509.44 212.12L509.44 225.92Q509.44 226.74 509.90 227.20Q510.35 227.67 511.12 227.67L515.20 227.67" fill="white" fill-opacity="0.7"/>
<path d="M522.45 229.88Q520.41 229.88 519.21 228.74Q518.01 227.60 518.01 225.75Q518.01 224.53 518.56 223.62Q519.11 222.70 520.10 222.19Q521.08 221.67 522.35 221.67L526.43 221.67L526.43 220.64Q526.43 218.07 523.62 218.07Q522.38 218.07 521.61 218.53Q520.84 218.98 520.79 219.80L518.63 219.80Q518.75 218.24 520.08 217.22Q521.42 216.20 523.62 216.20Q526.02 216.20 527.31 217.35Q528.59 218.50 528.59 220.57L528.59 229.64L526.46 229.64L526.46 227.24L526.41 227.24Q526.22 228.46 525.18 229.17Q524.15 229.88 522.45 229.88M522.98 228.06Q524.56 228.06 525.50 227.29Q526.43 226.52 526.43 225.20L526.43 223.35L522.59 223.35Q521.54 223.35 520.88 223.99Q520.22 224.62 520.22 225.68Q520.22 226.78 520.95 227.42Q521.68 228.06 522.98 228.06" fill="white" fill-opacity="0.7"/>
<path d="M538.77 229.88Q537.28 229.88 536.32 229.15Q535.36 228.42 535.19 227.12L535.17 227.12L535.17 229.64L533.01 229.64L533.01 212.12L535.17 212.12L535.17 215.96L535.12 218.96L535.14 218.96Q535.34 217.69 536.31 216.94Q537.28 216.20 538.77 216.20Q540.76 216.20 541.94 217.52Q543.11 218.84 543.11 221.12L543.11 224.98Q543.11 227.24 541.94 228.56Q540.76 229.88 538.77 229.88M538.05 228.01Q539.42 228.01 540.18 227.29Q540.95 226.57 540.95 224.96L540.95 221.12Q540.95 219.49 540.18 218.78Q539.42 218.07 538.05 218.07Q536.73 218.07 535.95 218.91Q535.17 219.75 535.17 221.24L535.17 224.84Q535.17 226.33 535.95 227.17Q536.73 228.01 538.05 228.01" fill="white" fill-opacity="0.7"/>
<path d="M558.52 229.64L547.24 229.64L547.24 227.67L551.92 227.67L551.92 218.41L547.72 218.41L547.72 216.44L554.08 216.44L554.08 227.67L558.52 227.67L558.52 229.64M552.76 214.06Q551.97 214.06 551.51 213.66Q551.06 213.25 551.06 212.55Q551.06 211.83 551.51 211.41Q551.97 210.99 552.76 210.99Q553.55 210.99 554.01 211.41Q554.46 211.83 554.46 212.55Q554.46 213.25 554.01 213.66Q553.55 214.06 552.76 214.06" fill="white" fill-opacity="0.7"/>
<path d="M572.80 229.64L568.72 229.64Q566.97 229.64 565.92 228.62Q564.88 227.60 564.88 225.92L564.88 214.09L560.32 214.09L560.32 212.12L567.04 212.12L567.04 225.92Q567.04 226.74 567.50 227.20Q567.95 227.67 568.72 227.67L572.80 227.67" fill="white" fill-opacity="0.7"/>
<path d="M587.32 229.64L576.04 229.64L576.04 227.67L580.72 227.67L580.72 218.41L576.52 218.41L576.52 216.44L582.88 216.44L582.88 227.67L587.32 227.67L587.32 229.64M581.56 214.06Q580.77 214.06 580.31 213.66Q579.86 213.25 579.86 212.55Q579.86 211.83 580.31 211.41Q580.77 210.99 581.56 210.99Q582.35 210.99 582.81 211.41Q583.26 211.83 583.26 212.55Q583.26 213.25 582.81 213.66Q582.35 214.06 581.56 214.06" fill="white" fill-opacity="0.7"/>
<path d="M600.76 229.64L596.92 229.64Q595.29 229.64 594.30 228.69Q593.32 227.74 593.32 226.16L593.32 218.41L589.53 218.41L589.53 216.44L593.32 216.44L593.32 212.72L595.48 212.72L595.48 216.44L600.88 216.44L600.88 218.41L595.48 218.41L595.48 226.16Q595.48 226.83 595.88 227.25Q596.27 227.67 596.92 227.67L600.76 227.67" fill="white" fill-opacity="0.7"/>
<path d="M609.33 233.96L607.07 233.96L609.02 228.82L604.10 216.44L606.42 216.44L609.54 224.60Q609.74 225.08 609.90 225.61Q610.07 226.14 610.14 226.52Q610.22 226.14 610.38 225.61Q610.55 225.08 610.72 224.60L613.62 216.44L615.90 216.44" fill="white" fill-opacity="0.7"/>
<path d="M637.65 229.88Q635.61 229.88 634.41 228.74Q633.21 227.60 633.21 225.75Q633.21 224.53 633.76 223.62Q634.31 222.70 635.30 222.19Q636.28 221.67 637.55 221.67L641.63 221.67L641.63 220.64Q641.63 218.07 638.82 218.07Q637.58 218.07 636.81 218.53Q636.04 218.98 635.99 219.80L633.83 219.80Q633.95 218.24 635.28 217.22Q636.62 216.20 638.82 216.20Q641.22 216.20 642.51 217.35Q643.79 218.50 643.79 220.57L643.79 229.64L641.66 229.64L641.66 227.24L641.61 227.24Q641.42 228.46 640.38 229.17Q639.35 229.88 637.65 229.88M638.18 228.06Q639.76 228.06 640.70 227.29Q641.63 226.52 641.63 225.20L641.63 223.35L637.79 223.35Q636.74 223.35 636.08 223.99Q635.42 224.62 635.42 225.68Q635.42 226.78 636.15 227.42Q636.88 228.06 638.18 228.06" fill="white" fill-opacity="0.7"/>
<path d="M650.37 229.64L648.21 229.64L648.21 216.44L650.37 216.44L650.37 218.96L650.39 218.96Q650.56 217.64 651.47 216.92Q652.38 216.20 653.90 216.20Q655.89 216.20 657.06 217.42Q658.24 218.65 658.24 220.76L658.24 229.64L656.08 229.64L656.08 221.14Q656.08 219.63 655.32 218.83Q654.57 218.02 653.27 218.02Q651.93 218.02 651.15 218.86Q650.37 219.70 650.37 221.24" fill="white" fill-opacity="0.7"/>
<path d="M666.83 229.88Q664.86 229.88 663.68 228.56Q662.49 227.24 662.49 224.98L662.49 221.12Q662.49 218.84 663.66 217.52Q664.84 216.20 666.83 216.20Q668.32 216.20 669.29 216.94Q670.26 217.69 670.46 218.96L670.48 218.96L670.43 215.96L670.43 212.12L672.59 212.12L672.59 229.64L670.43 229.64L670.43 227.12L670.41 227.12Q670.24 228.42 669.28 229.15Q668.32 229.88 666.83 229.88M667.55 228.01Q668.90 228.01 669.66 227.17Q670.43 226.33 670.43 224.84L670.43 221.24Q670.43 219.75 669.66 218.91Q668.90 218.07 667.55 218.07Q666.18 218.07 665.42 218.78Q664.65 219.49 664.65 221.12L664.65 224.96Q664.65 226.57 665.42 227.29Q666.18 228.01 667.55 228.01" fill="white" fill-opacity="0.7"/>
<path d="M697.17 229.88Q695.68 229.88 694.72 229.15Q693.76 228.42 693.59 227.12L693.57 227.12L693.57 229.64L691.41 229.64L691.41 212.12L693.57 212.12L693.57 215.96L693.52 218.96L693.54 218.96Q693.74 217.69 694.71 216.94Q695.68 216.20 697.17 216.20Q699.16 216.20 700.34 217.52Q701.51 218.84 701.51 221.12L701.51 224.98Q701.51 227.24 700.34 228.56Q699.16 229.88 697.17 229.88M696.45 228.01Q697.82 228.01 698.58 227.29Q699.35 226.57 699.35 224.96L699.35 221.12Q699.35 219.49 698.58 218.78Q697.82 218.07 696.45 218.07Q695.13 218.07 694.35 218.91Q693.57 219.75 693.57 221.24L693.57 224.84Q693.57 226.33 694.35 227.17Q695.13 228.01 696.45 228.01" fill="white" fill-opacity="0.7"/>
<path d="M710.80 229.83Q708.42 229.83 707.02 228.44Q705.62 227.05 705.62 224.55L705.62 221.53Q705.62 219.01 707.01 217.63Q708.40 216.25 710.80 216.25Q713.20 216.25 714.59 217.63Q715.98 219.01 715.98 221.53L715.98 224.55Q715.98 227.05 714.58 228.44Q713.18 229.83 710.80 229.83M710.80 227.91Q712.22 227.91 713.02 227.12Q713.82 226.33 713.82 224.79L713.82 221.29Q713.82 219.75 713.02 218.96Q712.22 218.17 710.80 218.17Q709.41 218.17 708.59 218.96Q707.78 219.75 707.78 221.29L707.78 224.79Q707.78 226.33 708.59 227.12Q709.41 227.91 710.80 227.91" fill="white" fill-opacity="0.7"/>
<path d="M725.20 229.83Q722.82 229.83 721.42 228.44Q720.02 227.05 720.02 224.55L720.02 221.53Q720.02 219.01 721.41 217.63Q722.80 216.25 725.20 216.25Q727.60 216.25 728.99 217.63Q730.38 219.01 730.38 221.53L730.38 224.55Q730.38 227.05 728.98 228.44Q727.58 229.83 725.20 229.83M725.20 227.91Q726.62 227.91 727.42 227.12Q728.22 226.33 728.22 224.79L728.22 221.29Q728.22 219.75 727.42 218.96Q726.62 218.17 725.20 218.17Q723.81 218.17 722.99 218.96Q722.18 219.75 722.18 221.29L722.18 224.79Q722.18 226.33 722.99 227.12Q723.81 227.91 725.20 227.91" fill="white" fill-opacity="0.7"/>
<path d="M736.89 229.64L734.73 229.64L734.73 212.12L736.89 212.12L736.89 221.89L739.41 221.89L743.10 216.44L745.58 216.44L741.33 222.73L745.82 229.64L743.30 229.64L739.46 223.76L736.89 223.76" fill="white" fill-opacity="0.7"/>
<path d="M760.12 229.64L748.84 229.64L748.84 227.67L753.52 227.67L753.52 218.41L749.32 218.41L749.32 216.44L755.68 216.44L755.68 227.67L760.12 227.67L760.12 229.64M754.36 214.06Q753.57 214.06 753.11 213.66Q752.66 213.25 752.66 212.55Q752.66 211.83 753.11 211.41Q753.57 210.99 754.36 210.99Q755.15 210.99 755.61 211.41Q756.06 211.83 756.06 212.55Q756.06 213.25 755.61 213.66Q755.15 214.06 754.36 214.06" fill="white" fill-opacity="0.7"/>
<path d="M765.57 229.64L763.41 229.64L763.41 216.44L765.57 216.44L765.57 218.96L765.59 218.96Q765.76 217.64 766.67 216.92Q767.58 216.20 769.10 216.20Q771.09 216.20 772.26 217.42Q773.44 218.65 773.44 220.76L773.44 229.64L771.28 229.64L771.28 221.14Q771.28 219.63 770.52 218.83Q769.77 218.02 768.47 218.02Q767.13 218.02 766.35 218.86Q765.57 219.70 765.57 221.24" fill="white" fill-opacity="0.7"/>
<path d="M783.16 233.96L779.46 233.96L779.46 231.99L783.18 231.99Q784.31 231.99 784.96 231.36Q785.61 230.72 785.61 229.64L785.61 228.44L785.66 226.28L785.58 226.28Q785.39 227.46 784.46 228.09Q783.52 228.73 782.10 228.73Q780.06 228.73 778.89 227.43Q777.71 226.14 777.71 223.88L777.71 221.10Q777.71 218.84 778.89 217.52Q780.06 216.20 782.10 216.20Q783.52 216.20 784.46 216.87Q785.39 217.54 785.58 218.72L785.63 218.72L785.63 216.44L787.77 216.44L787.77 229.64Q787.77 231.63 786.53 232.80Q785.30 233.96 783.16 233.96M782.75 226.93Q784.10 226.93 784.86 226.09Q785.63 225.25 785.63 223.76L785.63 221.24Q785.63 219.75 784.86 218.91Q784.10 218.07 782.75 218.07Q781.38 218.07 780.63 218.86Q779.87 219.66 779.87 221L779.87 224Q779.87 225.34 780.63 226.14Q781.38 226.93 782.75 226.93" fill="white" fill-opacity="0.7"/>
<path d="M90.80 137.02Q81.20 137.02 75.63 131.45Q70.06 125.88 70.06 115.71L70.06 86.24Q70.06 76.16 75.63 70.59Q81.20 65.02 90.80 65.02Q100.40 65.02 105.97 70.54Q111.54 76.06 111.54 86.24L111.54 115.71Q111.54 125.88 105.97 131.45Q100.40 137.02 90.80 137.02M90.80 128.57Q96.18 128.57 99.10 125.50Q102.03 122.43 102.03 116.67L102.03 85.28Q102.03 79.61 99.15 76.54Q96.27 73.47 90.80 73.47Q85.33 73.47 82.45 76.54Q79.57 79.61 79.57 85.28L79.57 116.67Q79.57 122.43 82.50 125.50Q85.42 128.57 90.80 128.57M136.78 136.06L127.86 136.06L127.86 65.98L140.14 65.98L161.07 125.12Q160.78 122.62 160.54 118.92Q160.30 115.23 160.16 111.24Q160.02 107.26 160.02 103.71L160.02 65.98L169.04 65.98L169.04 136.06L156.66 136.06L135.92 76.92Q136.11 79.42 136.30 83.02Q136.50 86.62 136.64 90.56Q136.78 94.49 136.78 97.95L136.78 136.06M206.38 137.02Q196.02 137.02 189.87 131.60Q183.73 126.17 183.73 116.67L193.23 116.67Q193.23 122.24 196.78 125.40Q200.34 128.57 206.38 128.57Q212.14 128.57 215.55 125.36Q218.96 122.14 218.96 116.76Q218.96 112.73 216.75 109.71Q214.54 106.68 210.51 105.63L200.14 102.84Q193.33 100.92 189.34 95.88Q185.36 90.84 185.36 83.93Q185.36 78.27 187.90 74Q190.45 69.72 195.06 67.37Q199.66 65.02 205.71 65.02Q211.86 65.02 216.51 67.37Q221.17 69.72 223.76 73.95Q226.35 78.17 226.35 83.74L216.94 83.74Q216.94 79.13 213.82 76.25Q210.70 73.37 205.71 73.37Q200.72 73.37 197.70 76.25Q194.67 79.13 194.67 83.74Q194.67 87.48 196.69 90.03Q198.70 92.57 202.35 93.63L213.01 96.51Q220.21 98.43 224.24 103.85Q228.27 109.28 228.27 116.76Q228.27 122.91 225.58 127.47Q222.90 132.03 217.95 134.52Q213.01 137.02 206.38 137.02M264.37 137.02Q254.67 137.02 248.96 131.60Q243.25 126.17 243.25 116.67L243.25 85.28Q243.25 75.87 248.96 70.44Q254.67 65.02 264.37 65.02Q273.97 65.02 279.68 70.49Q285.39 75.96 285.39 85.28L275.89 85.28Q275.89 79.61 272.82 76.54Q269.74 73.47 264.37 73.47Q258.90 73.47 255.82 76.54Q252.75 79.61 252.75 85.28L252.75 116.67Q252.75 122.43 255.82 125.50Q258.90 128.57 264.37 128.57Q269.74 128.57 272.82 125.50Q275.89 122.43 275.89 116.67L285.39 116.67Q285.39 126.08 279.68 131.55Q273.97 137.02 264.37 137.02M310.45 136.06L300.94 136.06L300.94 65.98L310.45 65.98L310.45 95.55L331.95 95.55L331.95 65.98L341.46 65.98L341.46 136.06L331.95 136.06L331.95 104.19L310.45 104.19L310.45 136.06M400.11 136.06L359.31 136.06L359.31 65.98L400.11 65.98L400.11 74.52L368.72 74.52L368.72 95.36L396.75 95.36L396.75 103.61L368.72 103.61L368.72 127.52L400.11 127.52L400.11 136.06M434.86 136.06L416.05 136.06L416.05 65.98L434.86 65.98Q441.68 65.98 446.72 68.62Q451.76 71.26 454.54 76.01Q457.33 80.76 457.33 87.20L457.33 114.75Q457.33 121.18 454.54 125.98Q451.76 130.78 446.72 133.42Q441.68 136.06 434.86 136.06M425.55 74.43L425.55 127.61L434.86 127.61Q440.91 127.61 444.37 124.16Q447.82 120.70 447.82 114.75L447.82 87.20Q447.82 81.24 444.37 77.84Q440.91 74.43 434.86 74.43L425.55 74.43M552.37 137.02Q542.67 137.02 536.96 131.60Q531.25 126.17 531.25 116.67L531.25 85.28Q531.25 75.87 536.96 70.44Q542.67 65.02 552.37 65.02Q561.97 65.02 567.68 70.49Q573.39 75.96 573.39 85.28L563.89 85.28Q563.89 79.61 560.82 76.54Q557.74 73.47 552.37 73.47Q546.90 73.47 543.82 76.54Q540.75 79.61 540.75 85.28L540.75 116.67Q540.75 122.43 543.82 125.50Q546.90 128.57 552.37 128.57Q557.74 128.57 560.82 125.50Q563.89 122.43 563.89 116.67L573.39 116.67Q573.39 126.08 567.68 131.55Q561.97 137.02 552.37 137.02M609.20 137.02Q599.60 137.02 594.03 131.45Q588.46 125.88 588.46 115.71L588.46 86.24Q588.46 76.16 594.03 70.59Q599.60 65.02 609.20 65.02Q618.80 65.02 624.37 70.54Q629.94 76.06 629.94 86.24L629.94 115.71Q629.94 125.88 624.37 131.45Q618.80 137.02 609.20 137.02M609.20 128.57Q614.58 128.57 617.50 125.50Q620.43 122.43 620.43 116.67L620.43 85.28Q620.43 79.61 617.55 76.54Q614.67 73.47 609.20 73.47Q603.73 73.47 600.85 76.54Q597.97 79.61 597.97 85.28L597.97 116.67Q597.97 122.43 600.90 125.50Q603.82 128.57 609.20 128.57M655.18 136.06L646.26 136.06L646.26 65.98L658.54 65.98L679.47 125.12Q679.18 122.62 678.94 118.92Q678.70 115.23 678.56 111.24Q678.42 107.26 678.42 103.71L678.42 65.98L687.44 65.98L687.44 136.06L675.06 136.06L654.32 76.92Q654.51 79.42 654.70 83.02Q654.90 86.62 655.04 90.56Q655.18 94.49 655.18 97.95L655.18 136.06M724.78 137.02Q714.42 137.02 708.27 131.60Q702.13 126.17 702.13 116.67L711.63 116.67Q711.63 122.24 715.18 125.40Q718.74 128.57 724.78 128.57Q730.54 128.57 733.95 125.36Q737.36 122.14 737.36 116.76Q737.36 112.73 735.15 109.71Q732.94 106.68 728.91 105.63L718.54 102.84Q711.73 100.92 707.74 95.88Q703.76 90.84 703.76 83.93Q703.76 78.27 706.30 74Q708.85 69.72 713.46 67.37Q718.06 65.02 724.11 65.02Q730.26 65.02 734.91 67.37Q739.57 69.72 742.16 73.95Q744.75 78.17 744.75 83.74L735.34 83.74Q735.34 79.13 732.22 76.25Q729.10 73.37 724.11 73.37Q719.12 73.37 716.10 76.25Q713.07 79.13 713.07 83.74Q713.07 87.48 715.09 90.03Q717.10 92.57 720.75 93.63L731.41 96.51Q738.61 98.43 742.64 103.85Q746.67 109.28 746.67 116.76Q746.67 122.91 743.98 127.47Q741.30 132.03 736.35 134.52Q731.41 137.02 724.78 137.02MNaN 137.02Q772.11 137.02 766.78 131.55Q761.46 126.08 761.46 116.67L761.46 65.98L770.96 65.98L770.96 116.67Q770.96 122.24 773.70 125.40Q776.43 128.57 NaN 128.57Q787.47 128.57 790.30 125.40Q793.14 122.24 793.14 116.67L793.14 65.98L802.64 65.98L802.64 116.67Q802.64 126.17 797.31 131.60Q791.98 137.02 NaN 137.02M826.35 136.06L817.33 136.06L817.33 65.98L830.77 65.98L839.41 96.22L848.43 65.98L861.97 65.98L861.97 136.06L852.85 136.06L852.85 103.90Q852.85 98.81 853.04 92.62Q853.23 86.43 853.57 80.24Q853.90 74.04 854.29 69.05L843.34 104.96L835.28 104.96L824.72 69.92Q825.58 76.92 825.97 85.52Q826.35 94.11 826.35 103.90L826.35 136.06M918.51 136.06L877.71 136.06L877.71 65.98L918.51 65.98L918.51 74.52L887.12 74.52L887.12 95.36L915.15 95.36L915.15 103.61L887.12 103.61L887.12 127.52L918.51 127.52L918.51 136.06M943.95 136.06L934.54 136.06L934.54 65.98L956.24 65.98Q962.67 65.98 967.47 68.52Q972.27 71.07 974.96 75.63Q977.65 80.19 977.65 86.33Q977.65 93.44 974.05 98.52Q970.45 103.61 964.50 105.72L978.61 136.06L968.14 136.06L954.80 106.78L943.95 106.78L943.95 136.06M943.95 74.43L943.95 98.33L956.24 98.33Q961.62 98.33 964.74 95.07Q967.86 91.80 967.86 86.43Q967.86 80.96 964.69 77.69Q961.52 74.43 956.24 74.43" fill="url(#paint2_linear_0_1)"/>
<g id="Group 1">
<rect id="Rectangle 1" x="26" y="168" width="12" height="184" rx="5" fill="url(#paint3_linear_0_1)" fill-opacity="0.9"/>
</g>
<g id="Group 1_2">
<rect id="Rectangle 2" x="26" y="38" width="12" height="119" rx="5" fill="url(#paint4_linear_0_1)" fill-opacity="0.9"/>
</g>
<ellipse id="Ellipse 1" cx="148.5" cy="573" rx="215.5" ry="214" fill="url(#paint5_linear_0_1)" fill-opacity="0.4"/>
<rect id="Rectangle 3" x="1229" y="48" width="300" height="300" rx="25" fill="#FFFBFB" fill-opacity="0.9"/>
<g id="placeholder-logo"><g transform="translate(1229,48) translate(0.0,60.0) scale(1.2000)"><g fill="#666666">
  <path d="m88.05,27.65c-3.15,4 -3.2,51.2 -0.05,54.35c2.75,2.75 71.7,3.15 74.45,0.45c2.85,-2.9 2.3,-53.85 -0.65,-55.9c-1.95,-1.35 -7.15,-1.55 -36.95,-1.55l-34.7,0l-2.1,2.65zm69.45,3.35c0.65,0 1,8.6 1,23.75l0,23.75l-33,0l-33,0l-0.25,-23c-0.15,-12.6 -0.1,-23.45 0.15,-24.1c0.35,-0.85 8.9,-1.05 32.25,-0.75c17.55,0.2 32.3,0.35 32.85,0.35z"/>
  <path d="m99.15,37.3c-6.85,7.35 4.25,17.35 11.4,10.25c1.35,-1.35 2.45,-3.65 2.45,-5.05c0,-6.45 -9.35,-9.95 -13.85,-5.2z"/>
  <path d="m135,42.5c-0.7,0.85 -5.25,5.15 -10.1,9.6l-8.85,8.1l-3.2,-3.2l-3.15,-3.15l-6.35,6.3c-5.55,5.5 -6.35,6.75 -6.35,10.05l0,3.8l28.5,0l28.5,0l0,-8.6l0,-8.55l-8.15,-7.7c-9.35,-8.85 -9.15,-8.7 -10.85,-6.65zm7.25,15.2c0.95,0.9 1.75,2.9 1.75,4.45c6.35,-5.05 4.75,-7.15 4.9,-11.55c0.95,0 0,0 0,0l-6.65,7.1z"/>
  <path d="m53.65,110.75c0.1,4.8 0.45,8.65 0.75,8.5c0.35,-0.15 1.3,-0.25 2.1,-0.25c1.1,0 1.5,-1.2 1.5,-4.75l0,-4.75l3.25,5c4.9,7.5 6.2,6.75 6.55,-3.75c0.25,-8.15 0.15,-8.75 -1.7,-8.75c-1.65,0 -2.05,0.8 -2.3,4.75l-0.3,4.75l-2.8,-4.75c-4.85,-8.25 -7.25,-6.9 -7.05,4z"/>
  <path d="m91,108.9c0,9.65 0.3,10.1 6.1,10.1c5.8,0 7.15,-2.65 1.65,-3.2l-3.25,-0.3l-0.3,-6.75c-0.25,-5.95 -0.55,-6.75 -2.25,-6.75c-1.75,0 -1.95,0.7 -1.95,6.9z"/>
  <path d="m151,102.45c0,0.25 1,2.15 2.25,4.2c1.2,2.1 2.45,5.8 2.75,8.25c0.65,5.9 4,6.95 4,1.25c0.05,-2.1 1.25,-5.85 2.95,-8.9l2.9,-5.25l-2.5,0c-1.8,0 -2.8,0.85 -3.75,3.1l-1.3,3.05l-1.25,-3.05c-1.1,-2.6 -6.05,-4.8 -6.05,-2.65z"/>
  <path d="m191,107.45c0,9.05 3.4,8.85 4.25,-0.2c0.45,-5 0.35,-5.25 -1.9,-5.25c-2.2,0 -2.35,0.4 -2.35,5.45z"/>
  <path d="m180.8,104.75c-1.3,5.35 0.65,13.6 3.45,14.35c2.3,0.6 2.75,0.4 2.75,-1.2c0,-1.05 -0.45,-1.9 -1,-1.9c-0.55,0 -1,-1.6 -1,-3.5c0,-1.95 0.45,-3.5 1,-3.5c0.55,0 1,-0.7 1,-1.5c0,-0.85 -0.45,-1.5 -1,-1.5c-0.55,0 -1,-0.7 -1,-1.5c0,-2.1 -3.65,-1.9 -4.2,0.25z"/>
  <path d="m71.55,106.55c-2.2,2.25 -2.05,9.7 0.3,11.8c4.5,4.1 10.15,0.75 10.15,-6.1c0,-4.85 -2,-7.25 -6,-7.25c-1.55,0 -3.55,0.7 -4.45,1.55zm6.25,5.8c0.25,3.05 0,3.65 -1.6,3.65c-2.3,0 -3.25,-2.65 -2.05,-5.85c1.25,-3.35 3.3,-2.1 3.65,2.2z"/>
  <path d="m105.75,106.1c-2.5,1.45 -2.45,9.95 0.1,12.25c4.3,3.9 10.15,0.35 10.15,-6.2c0,-6 -5.15,-9.05 -10.25,-6.05zm6.05,6.25c0.25,3.05 0,3.65 -1.6,3.65c-2.3,0 -3.25,-2.65 -2.05,-5.85c1.25,-3.35 3.3,-2.1 3.65,2.2z"/>
  <path d="m119.2,106.2c-3.8,3.8 -0.4,12.55 4.4,11.35c1.9,-0.45 2.45,-0.3 2.15,0.65c-0.25,0.7 -1.55,1.2 -2.85,1.1c-4.05,-0.3 -5.35,0.45 -3.85,2.25c0.85,1.05 2.6,1.45 5.35,1.25l4.1,-0.3l0.3,-8.75l0.3,-8.75l-4.35,0c-2.4,0 -4.9,0.55 -5.55,1.2zm6.6,4.45c0.4,2.85 -2.15,4.85 -3.75,2.95c-0.9,-1.1 -0.9,-2 -0.05,-3.6c1.35,-2.5 3.4,-2.15 3.8,0.65z"/>
  <path d="m133.55,106.55c-2.2,2.25 -2.05,9.7 0.3,11.8c4.5,4.1 10.15,0.75 10.15,-6.1c0,-4.85 -2,-7.25 -6,-7.25c-1.55,0 -3.55,0.7 -4.45,1.55zm6.25,5.8c0.25,3.05 0,3.65 -1.6,3.65c-2.3,0 -3.25,-2.65 -2.05,-5.85c1.25,-3.35 3.3,-2.1 3.65,2.2z"/>
  <path d="m167.65,106.85c-3.9,4.3 -0.75,13.15 4.7,13.15c2.4,0 5.65,-2.75 5.65,-4.85c0,-1.4 -2.65,-1.55 -3.5,-0.15c-0.95,1.55 -4.5,1.15 -4.5,-0.5c0,-1.1 1.1,-1.5 4,-1.5c3.15,0 4,-0.35 4,-1.8c0,-5.3 -6.85,-8.25 -10.35,-4.35z"/>
  <path d="m191,117.5c0,2.15 0.4,2.6 2.25,2.3c1.5,-0.2 2.25,-1 2.25,-2.3c0,-1.3 -0.75,-2.1 -2.25,-2.3c-1.85,-0.3 -2.25,0.15 -2.25,2.3z"/>
 </g></g></g>
</g>
<defs>
<linearGradient id="paint0_linear_0_1" x1="0" y1="198" x2="1584" y2="198" gradientUnits="userSpaceOnUse">
<stop stop-color="#3D052C"/>
<stop offset="1"/>
</linearGradient>
<linearGradient id="paint1_linear_0_1" x1="323" y1="-224" x2="323" y2="352" gradientUnits="userSpaceOnUse">
<stop stop-color="#28F6F2" stop-opacity="0.4"/>
<stop offset="1" stop-color="#17908E" stop-opacity="0.7"/>
</linearGradient>
<linearGradient id="paint2_linear_0_1" x1="148.5" y1="38" x2="148.5" y2="140" gradientUnits="userSpaceOnUse">
<stop stop-color="white"/>
<stop offset="1" stop-color="#999999"/>
</linearGradient>
<linearGradient id="paint3_linear_0_1" x1="38" y1="260" x2="26" y2="260" gradientUnits="userSpaceOnUse">
<stop stop-color="#D9D9D9"/>
<stop offset="1" stop-color="#737373"/>
</linearGradient>
<linearGradient id="paint4_linear_0_1" x1="38" y1="97.5" x2="26" y2="97.5" gradientUnits="userSpaceOnUse">
<stop stop-color="#D9D9D9"/>
<stop offset="1" stop-color="#737373"/>
</linearGradient>
<linearGradient id="paint5_linear_0_1" x1="27.5" y1="434.5" x2="148.5" y2="787" gradientUnits="userSpaceOnUse">
<stop stop-color="#2E21BC"/>
<stop offset="1" stop-color="#150F56"/>
</linearGradient>
<clipPath id="clip0_0_1">
<rect width="1584" height="396" fill="white"/>
</clipPath>
</defs>
</svg>
